<svg width="80" height="35" viewBox="0 0 80 35" fill="none" xmlns="http://www.w3.org/2000/svg">
<path fill-rule="evenodd" clip-rule="evenodd" d="M50.6763 15.6459C54.4019 18.5806 60.945 25.2719 54.9583 29.4267C51.1484 32.0698 44.546 32.2596 41.0538 28.9212C36.6773 24.737 40.296 18.9803 43.8963 15.7892C44.9325 14.8702 46.0484 14.0326 47.2156 13.2555C48.4129 13.9862 49.5732 14.777 50.6763 15.6459ZM79.4385 1.38839C68.7241 1.4849 57.1638 4.09793 47.718 9.62143C45.5473 8.44703 43.402 7.49879 41.5511 6.79905C30.7981 2.73507 17.4308 1.7875 6.25051 4.60804C5.02882 4.91669 4.9202 6.43813 5.61973 7.20178C5.18201 6.82339 4.74884 6.43949 4.32021 6.05007C5.38049 4.97337 6.57584 4.09735 7.97463 3.38345C8.82954 2.94749 9.86161 2.73056 10.668 2.2368C11.1484 1.94283 11.0554 1.55217 11.6225 1.3031C11.8034 1.22367 11.8424 0.934589 11.6109 0.885117C10.9769 0.750138 10.6864 0.28592 10.0466 0.177519C9.03885 0.00632848 7.35703 0.586962 6.44706 0.931918C4.18081 1.791 2.2252 3.23377 0.574052 4.98822C-0.115342 5.72121 0.0274232 6.77497 0.665489 7.47439C2.22944 9.18923 4.0369 10.6823 5.91555 12.0386C7.54347 13.2134 9.31693 14.6532 11.3178 15.0338C12.8864 15.3331 13.8782 13.4851 12.7612 12.3418C11.3985 10.9463 9.44813 10.1524 7.86624 9.00452C7.18796 8.51247 6.5443 7.98651 5.91142 7.44833C6.13855 7.58605 6.41365 7.66101 6.73502 7.63785C17.118 6.88875 26.9657 5.89761 37.1602 8.87187C39.6644 9.60142 42.1165 10.5495 44.4532 11.7228C44.2572 11.8599 44.0536 11.9896 43.8586 12.1299C37.4589 16.7542 31.6848 26.8374 40.4244 32.4933C46.6271 36.5087 60.3921 34.8535 60.6528 25.5607C60.8196 19.6233 55.9677 14.7464 50.5246 11.2731C53.5006 9.66384 56.662 8.34216 59.6925 7.1145C66.0094 4.55434 72.725 2.88793 79.4486 1.822C79.7152 1.77951 79.7267 1.38559 79.4385 1.38839Z" fill="black"/>
</svg>
