<svg width="196" height="67" viewBox="0 0 196 67" fill="none" xmlns="http://www.w3.org/2000/svg">
<g clip-path="url(#clip0_1_198)" filter="url(#filter0_d_1_198)">
<rect width="172" height="43" transform="translate(11 11.0034)" fill="#FFC9F0"/>
<mask id="path-1-outside-1_1_198" maskUnits="userSpaceOnUse" x="12" y="16.0034" width="171" height="26" fill="black">
<rect fill="white" x="12" y="16.0034" width="171" height="26"/>
<path d="M31.9213 22.9234C31.6013 23.2221 31.3239 23.4354 31.0893 23.5634C30.8546 23.6914 30.6199 23.7021 30.3853 23.5954C30.1719 23.4888 30.0226 23.4034 29.9373 23.3394C29.8519 23.2754 29.6813 23.0728 29.4253 22.7314C29.1906 22.3688 29.0413 22.1448 28.9773 22.0594C27.8893 20.7154 26.4813 20.0434 24.7533 20.0434C23.0466 20.0434 21.4359 20.5981 19.9213 21.7074C18.4279 22.7954 17.2226 24.2354 16.3053 26.0274C15.3879 27.8194 14.9293 29.6861 14.9293 31.6274C14.9293 34.0168 15.7186 35.9688 17.2973 37.4834C18.8973 38.9981 21.0093 39.7554 23.6333 39.7554C26.2786 39.7554 28.5933 39.0194 30.5773 37.5474C30.8973 37.3128 31.2386 36.9714 31.6013 36.5234C31.9853 36.0754 32.3053 35.7554 32.5613 35.5634C32.8386 35.3714 33.0946 35.2861 33.3293 35.3074C33.5853 35.3288 33.9373 35.4034 34.3853 35.5314C33.4679 37.3234 31.9319 38.7208 29.7773 39.7234C27.6439 40.7048 25.2226 41.1954 22.5133 41.1954C19.8039 41.1954 17.5106 40.4381 15.6333 38.9234C13.7559 37.4088 12.8173 35.2114 12.8173 32.3314C12.8173 30.5394 13.1159 28.8114 13.7133 27.1474C14.3106 25.4621 15.1319 23.9794 16.1773 22.6994C17.2439 21.3981 18.5666 20.3634 20.1453 19.5954C21.7453 18.8274 23.4733 18.4434 25.3293 18.4434C28.6359 18.4434 30.8333 19.9368 31.9213 22.9234ZM37.8823 27.7234C38.9703 26.0594 40.5383 25.2274 42.5863 25.2274C44.6343 25.2274 46.2663 26.0594 47.4823 27.7234C48.7196 29.3874 49.3383 31.2861 49.3383 33.4194C49.3383 35.5314 48.6663 37.3234 47.3223 38.7954C45.9783 40.2674 44.2716 41.0034 42.2023 41.0034C40.1329 41.0034 38.6289 40.4274 37.6903 39.2754C36.7516 38.1021 36.2823 36.4594 36.2823 34.3474C36.2823 31.5954 36.8156 29.3874 37.8823 27.7234ZM39.2903 29.4194C39.0129 30.2514 38.7996 31.0834 38.6503 31.9154C38.5223 32.7474 38.4583 33.5261 38.4583 34.2514C38.4583 34.9554 38.5116 35.6061 38.6183 36.2034C38.7249 36.7794 38.9063 37.3554 39.1623 37.9314C39.4183 38.4861 39.8023 38.9341 40.3143 39.2754C40.8263 39.5954 41.4343 39.7554 42.1383 39.7554C43.5676 39.7554 44.7623 39.1688 45.7223 37.9954C46.7036 36.8221 47.1943 35.4034 47.1943 33.7394C47.1943 32.0754 46.7463 30.4648 45.8503 28.9074C44.9756 27.3288 43.8983 26.5394 42.6183 26.5394C41.8503 26.5394 41.1783 26.8061 40.6023 27.3394C40.0263 27.8728 39.5889 28.5661 39.2903 29.4194ZM65.6338 40.1074C65.2498 40.5128 64.8124 40.7154 64.3218 40.7154C63.4044 40.7154 62.7218 40.2248 62.2738 39.2434C61.8258 38.2621 61.5591 37.0674 61.4738 35.6594C61.4098 34.2514 61.3671 32.8434 61.3458 31.4354C61.3244 30.0274 61.2071 28.8328 60.9938 27.8514C60.8018 26.8701 60.4284 26.3794 59.8738 26.3794C59.1271 26.3794 58.4871 27.0514 57.9538 28.3954C57.4418 29.7394 57.0791 31.2328 56.8658 32.8754C56.2684 37.4621 55.6924 40.0328 55.1378 40.5874C54.7538 40.7794 54.4231 40.8754 54.1458 40.8754C53.8684 40.8754 53.6338 40.8434 53.4418 40.7794C52.9938 38.8168 52.7058 35.4354 52.5778 30.6354C52.5351 28.2461 52.4924 26.6994 52.4498 25.9954C52.8978 25.6968 53.2818 25.5474 53.6018 25.5474C53.9218 25.5474 54.1778 25.5794 54.3698 25.6434C54.4764 26.5608 54.5298 28.4381 54.5298 31.2754C54.5511 34.1128 54.5724 35.7448 54.5938 36.1714C54.7004 35.7234 54.8284 34.9981 54.9778 33.9954C55.1484 32.9928 55.2978 32.1714 55.4258 31.5314C55.5538 30.8701 55.7564 30.1021 56.0338 29.2274C56.3111 28.3528 56.6204 27.6594 56.9618 27.1474C57.3031 26.6141 57.7724 26.1661 58.3698 25.8034C58.9671 25.4194 59.6391 25.2274 60.3858 25.2274C61.3884 25.2274 62.1138 25.6861 62.5618 26.6034C63.0311 27.4994 63.2871 28.6194 63.3298 29.9634C63.3724 31.3074 63.3938 32.6728 63.3938 34.0594C63.4151 35.4461 63.5858 36.7154 63.9058 37.8674C64.2471 39.0194 64.8231 39.7661 65.6338 40.1074ZM67.7325 27.5954C66.7725 27.5954 66.1218 27.3608 65.7805 26.8914C65.7805 26.5501 65.9192 26.2834 66.1965 26.0914C66.4952 25.8994 66.8152 25.7821 67.1565 25.7394C67.4978 25.6754 68.0525 25.6221 68.8205 25.5794C68.8845 25.0034 68.9165 24.2674 68.9165 23.3714C68.9378 22.4541 68.9592 21.6754 68.9805 21.0354C69.0445 19.3501 69.3005 18.3154 69.7485 17.9314C69.9405 17.7608 70.1432 17.6754 70.3565 17.6754C70.5912 17.6754 70.7938 17.6968 70.9645 17.7394C71.0285 19.2754 71.0605 20.2034 71.0605 20.5234L70.8685 25.3234C70.9112 25.3448 71.0285 25.3554 71.2205 25.3554L73.5245 25.2594C75.1885 25.2594 76.0205 25.5154 76.0205 26.0274C76.0205 26.7528 75.7218 27.1794 75.1245 27.3074C74.8472 27.3714 74.5165 27.4034 74.1325 27.4034C73.7698 27.4034 73.2898 27.3608 72.6925 27.2754C72.1165 27.1688 71.7005 27.1154 71.4445 27.1154C71.1885 27.1154 71.0178 27.1261 70.9325 27.1474C70.8685 27.7661 70.8365 28.3848 70.8365 29.0034C70.8365 29.6008 70.8472 30.3581 70.8685 31.2754C70.9112 32.1714 70.9965 33.2488 71.1245 34.5074C71.2738 35.7661 71.5832 36.8541 72.0525 37.7714C72.5218 38.6674 73.1192 39.1154 73.8445 39.1154C74.2072 39.1154 74.6338 38.9768 75.1245 38.6994C75.6152 38.4008 75.9885 38.2514 76.2445 38.2514C76.5218 38.2514 76.7565 38.3154 76.9485 38.4434C77.1618 38.5501 77.2685 38.6781 77.2685 38.8274C77.2685 39.2754 76.8098 39.7128 75.8925 40.1394C74.9965 40.5448 74.2285 40.7474 73.5885 40.7474C71.2418 40.7474 69.7805 38.5288 69.2045 34.0914C69.0338 32.8114 68.9058 30.6141 68.8205 27.4994C68.4792 27.5634 68.1165 27.5954 67.7325 27.5954ZM89.2813 31.7874L89.1213 35.4674C89.1213 37.3234 89.3346 38.5714 89.7613 39.2114C90.0173 39.6381 90.3693 39.8514 90.8173 39.8514C90.9453 39.8514 91.1266 39.8194 91.3613 39.7554C91.8093 39.6274 92.1826 39.6914 92.4813 39.9474C92.3319 40.6941 91.5853 41.0674 90.2413 41.0674C89.3239 41.0674 88.7159 40.6834 88.4173 39.9154C88.1826 39.3394 88.0119 38.6248 87.9053 37.7714C87.7986 36.8968 87.7133 36.2994 87.6493 35.9794C86.2626 38.6248 84.9186 40.2354 83.6173 40.8114C82.9559 41.1101 82.1879 41.2594 81.3133 41.2594C80.4386 41.2594 79.7559 40.8434 79.2653 40.0114C78.7959 39.1581 78.5613 37.9208 78.5613 36.2994C78.5613 34.6781 78.8279 32.9821 79.3613 31.2114C79.8946 29.4194 80.6733 27.9154 81.6973 26.6994C82.7213 25.4621 83.8413 24.8434 85.0573 24.8434C86.8066 24.8434 87.9693 25.5688 88.5453 27.0194C89.0359 28.2568 89.2813 29.8461 89.2813 31.7874ZM81.4413 30.7634C81.1426 31.9154 80.9186 33.0141 80.7693 34.0594C80.6199 35.0834 80.5453 36.0008 80.5453 36.8114C80.5453 37.6008 80.7053 38.2834 81.0253 38.8594C81.3666 39.4354 81.8039 39.7234 82.3373 39.7234C83.4893 39.7234 84.5986 38.6354 85.6653 36.4594C86.7319 34.2834 87.2653 32.2568 87.2653 30.3794C87.2653 29.1634 86.9453 28.1608 86.3053 27.3714C85.8786 26.8594 85.3133 26.6034 84.6093 26.6034C83.9266 26.6034 83.2973 27.0088 82.7213 27.8194C82.1666 28.6088 81.7399 29.5901 81.4413 30.7634ZM104.296 29.0034C103.891 29.4088 103.486 29.6114 103.08 29.6114C102.675 29.6114 102.344 29.4408 102.088 29.0994C101.854 28.7368 101.662 28.3528 101.512 27.9474C101.363 27.5208 101.086 27.1368 100.68 26.7954C100.296 26.4328 99.8056 26.2514 99.2083 26.2514C98.3763 26.3368 97.6189 26.9341 96.9363 28.0434C96.2536 29.1314 95.7523 30.3368 95.4323 31.6594C95.1123 32.9821 94.9523 34.2301 94.9523 35.4034C94.9523 36.5554 95.2723 37.5581 95.9123 38.4114C96.5736 39.2434 97.4589 39.6594 98.5683 39.6594C99.8483 39.6594 100.872 39.2114 101.64 38.3154C101.96 37.9314 102.259 37.5474 102.536 37.1634C103.219 36.2674 103.838 35.8194 104.392 35.8194C104.584 35.8194 104.862 35.8728 105.224 35.9794C105.224 36.7688 104.499 37.8141 103.048 39.1154C101.619 40.3954 100.062 41.0354 98.3763 41.0354C96.6909 41.0354 95.3576 40.5021 94.3763 39.4354C93.4163 38.3474 92.9363 36.9501 92.9363 35.2434C92.9363 33.0461 93.4696 30.8488 94.5363 28.6514C95.0696 27.5848 95.7949 26.7101 96.7123 26.0274C97.6296 25.3234 98.6536 24.9714 99.7843 24.9714C100.915 24.9714 101.822 25.3554 102.504 26.1234C103.208 26.8701 103.806 27.8301 104.296 29.0034ZM107.858 27.5954C106.898 27.5954 106.247 27.3608 105.905 26.8914C105.905 26.5501 106.044 26.2834 106.322 26.0914C106.62 25.8994 106.94 25.7821 107.282 25.7394C107.623 25.6754 108.178 25.6221 108.946 25.5794C109.01 25.0034 109.042 24.2674 109.042 23.3714C109.063 22.4541 109.084 21.6754 109.106 21.0354C109.17 19.3501 109.426 18.3154 109.874 17.9314C110.066 17.7608 110.268 17.6754 110.482 17.6754C110.716 17.6754 110.919 17.6968 111.09 17.7394C111.154 19.2754 111.186 20.2034 111.186 20.5234L110.994 25.3234C111.036 25.3448 111.154 25.3554 111.346 25.3554L113.65 25.2594C115.314 25.2594 116.146 25.5154 116.146 26.0274C116.146 26.7528 115.847 27.1794 115.25 27.3074C114.972 27.3714 114.642 27.4034 114.258 27.4034C113.895 27.4034 113.415 27.3608 112.818 27.2754C112.242 27.1688 111.826 27.1154 111.57 27.1154C111.314 27.1154 111.143 27.1261 111.058 27.1474C110.994 27.7661 110.962 28.3848 110.962 29.0034C110.962 29.6008 110.972 30.3581 110.994 31.2754C111.036 32.1714 111.122 33.2488 111.25 34.5074C111.399 35.7661 111.708 36.8541 112.178 37.7714C112.647 38.6674 113.244 39.1154 113.97 39.1154C114.332 39.1154 114.759 38.9768 115.25 38.6994C115.74 38.4008 116.114 38.2514 116.37 38.2514C116.647 38.2514 116.882 38.3154 117.074 38.4434C117.287 38.5501 117.394 38.6781 117.394 38.8274C117.394 39.2754 116.935 39.7128 116.018 40.1394C115.122 40.5448 114.354 40.7474 113.714 40.7474C111.367 40.7474 109.906 38.5288 109.33 34.0914C109.159 32.8114 109.031 30.6141 108.946 27.4994C108.604 27.5634 108.242 27.5954 107.858 27.5954ZM126.705 34.3794L126.993 20.0434C126.993 18.9341 126.929 18.1768 126.801 17.7714C127.185 17.4301 127.772 17.2594 128.561 17.2594C128.881 19.5421 129.041 22.4754 129.041 26.0594C129.041 27.1261 128.945 29.6008 128.753 33.4834C129.756 28.0861 131.548 25.3874 134.129 25.3874C135.046 25.3874 135.75 25.8781 136.241 26.8594C136.753 27.8194 137.073 28.9928 137.201 30.3794C137.329 31.7661 137.436 33.1528 137.521 34.5394C137.734 37.8674 138.332 39.5314 139.313 39.5314C139.334 39.5314 139.537 39.4674 139.921 39.3394C140.774 39.0834 141.254 39.0194 141.361 39.1474C141.361 39.3821 141.03 39.6808 140.369 40.0434C139.708 40.3848 139.1 40.5554 138.545 40.5554C137.606 40.5554 136.881 40.0754 136.369 39.1154C135.878 38.1341 135.569 36.9501 135.441 35.5634C135.334 34.1768 135.249 32.8008 135.185 31.4354C135.142 30.0488 135.004 28.8754 134.769 27.9154C134.534 26.9341 134.14 26.4434 133.585 26.4434C132.902 26.4434 132.273 27.1901 131.697 28.6834C131.142 30.1554 130.705 31.7874 130.385 33.5794C130.065 35.3714 129.67 37.0141 129.201 38.5074C128.753 39.9794 128.294 40.7154 127.825 40.7154C127.078 40.7154 126.705 38.6034 126.705 34.3794ZM143.77 34.5074C143.727 34.9341 143.706 35.2221 143.706 35.3714C143.706 36.6514 144.09 37.6434 144.858 38.3474C145.647 39.0514 146.575 39.4034 147.642 39.4034C148.709 39.4034 149.573 39.2541 150.234 38.9554C150.917 38.6568 151.407 38.3368 151.706 37.9954C152.474 37.0354 153.178 36.5554 153.818 36.5554C154.053 36.5554 154.33 36.6194 154.65 36.7474C154.437 37.7928 153.626 38.7528 152.218 39.6274C150.831 40.4808 149.082 40.9074 146.97 40.9074C145.477 40.9074 144.186 40.4381 143.098 39.4994C142.031 38.5394 141.498 37.2381 141.498 35.5954C141.498 33.9528 141.818 32.3634 142.458 30.8274C143.119 29.2701 144.058 27.9474 145.274 26.8594C146.511 25.7501 147.759 25.1954 149.018 25.1954C150.298 25.1954 151.322 25.4621 152.09 25.9954C152.879 26.5074 153.274 27.2648 153.274 28.2674C153.274 30.1234 152.442 31.6594 150.778 32.8754C149.135 34.0701 147.386 34.6674 145.53 34.6674C145.039 34.6674 144.453 34.6141 143.77 34.5074ZM146.202 33.4514C147.205 33.4514 148.101 33.1314 148.89 32.4914C149.679 31.8514 150.234 31.1794 150.554 30.4754C150.895 29.7714 151.066 29.1314 151.066 28.5554C151.066 27.9794 150.842 27.4781 150.394 27.0514C149.946 26.6034 149.423 26.3794 148.826 26.3794C147.759 26.3794 146.767 27.1154 145.85 28.5874C144.954 30.0594 144.314 31.5848 143.93 33.1634C144.869 33.3554 145.626 33.4514 146.202 33.4514ZM160.399 37.8674L160.495 39.6914C160.495 40.1608 160.356 40.4914 160.079 40.6834C159.823 40.8541 159.556 40.9394 159.279 40.9394C159.023 40.9394 158.756 40.8968 158.479 40.8114C158.01 38.3368 157.647 35.2541 157.391 31.5634C157.156 27.8728 157.018 25.7821 156.975 25.2914C157.295 24.9928 157.626 24.8434 157.967 24.8434C158.33 24.8434 158.65 24.8861 158.927 24.9714C159.012 25.5901 159.076 26.9554 159.119 29.0674C159.162 31.1794 159.215 32.5021 159.279 33.0354C159.578 31.2434 160.111 29.5688 160.879 28.0114C161.306 27.1368 161.86 26.4434 162.543 25.9314C163.247 25.3981 163.994 25.1314 164.783 25.1314C165.594 25.1314 166.33 25.4941 166.991 26.2194C167.674 26.9234 168.015 27.5634 168.015 28.1394C168.015 28.3528 167.887 28.5234 167.631 28.6514C167.375 28.7581 167.087 28.8114 166.767 28.8114C166.468 28.8114 166.234 28.6941 166.063 28.4594C165.892 28.2248 165.775 27.9688 165.711 27.6914C165.647 27.3928 165.508 27.1261 165.295 26.8914C165.082 26.6568 164.794 26.5394 164.431 26.5394C163.471 26.5394 162.65 27.4034 161.967 29.1314C160.922 31.7128 160.399 34.6248 160.399 37.8674ZM171.114 34.5074C171.071 34.9341 171.05 35.2221 171.05 35.3714C171.05 36.6514 171.434 37.6434 172.202 38.3474C172.991 39.0514 173.919 39.4034 174.986 39.4034C176.052 39.4034 176.916 39.2541 177.578 38.9554C178.26 38.6568 178.751 38.3368 179.05 37.9954C179.818 37.0354 180.522 36.5554 181.162 36.5554C181.396 36.5554 181.674 36.6194 181.994 36.7474C181.78 37.7928 180.97 38.7528 179.562 39.6274C178.175 40.4808 176.426 40.9074 174.314 40.9074C172.82 40.9074 171.53 40.4381 170.442 39.4994C169.375 38.5394 168.842 37.2381 168.842 35.5954C168.842 33.9528 169.162 32.3634 169.802 30.8274C170.463 29.2701 171.402 27.9474 172.618 26.8594C173.855 25.7501 175.103 25.1954 176.362 25.1954C177.642 25.1954 178.666 25.4621 179.434 25.9954C180.223 26.5074 180.618 27.2648 180.618 28.2674C180.618 30.1234 179.786 31.6594 178.122 32.8754C176.479 34.0701 174.73 34.6674 172.874 34.6674C172.383 34.6674 171.796 34.6141 171.114 34.5074ZM173.546 33.4514C174.548 33.4514 175.444 33.1314 176.234 32.4914C177.023 31.8514 177.578 31.1794 177.898 30.4754C178.239 29.7714 178.41 29.1314 178.41 28.5554C178.41 27.9794 178.186 27.4781 177.738 27.0514C177.29 26.6034 176.767 26.3794 176.17 26.3794C175.103 26.3794 174.111 27.1154 173.194 28.5874C172.298 30.0594 171.658 31.5848 171.274 33.1634C172.212 33.3554 172.97 33.4514 173.546 33.4514Z"/>
</mask>
<path d="M31.9213 22.9234C31.6013 23.2221 31.3239 23.4354 31.0893 23.5634C30.8546 23.6914 30.6199 23.7021 30.3853 23.5954C30.1719 23.4888 30.0226 23.4034 29.9373 23.3394C29.8519 23.2754 29.6813 23.0728 29.4253 22.7314C29.1906 22.3688 29.0413 22.1448 28.9773 22.0594C27.8893 20.7154 26.4813 20.0434 24.7533 20.0434C23.0466 20.0434 21.4359 20.5981 19.9213 21.7074C18.4279 22.7954 17.2226 24.2354 16.3053 26.0274C15.3879 27.8194 14.9293 29.6861 14.9293 31.6274C14.9293 34.0168 15.7186 35.9688 17.2973 37.4834C18.8973 38.9981 21.0093 39.7554 23.6333 39.7554C26.2786 39.7554 28.5933 39.0194 30.5773 37.5474C30.8973 37.3128 31.2386 36.9714 31.6013 36.5234C31.9853 36.0754 32.3053 35.7554 32.5613 35.5634C32.8386 35.3714 33.0946 35.2861 33.3293 35.3074C33.5853 35.3288 33.9373 35.4034 34.3853 35.5314C33.4679 37.3234 31.9319 38.7208 29.7773 39.7234C27.6439 40.7048 25.2226 41.1954 22.5133 41.1954C19.8039 41.1954 17.5106 40.4381 15.6333 38.9234C13.7559 37.4088 12.8173 35.2114 12.8173 32.3314C12.8173 30.5394 13.1159 28.8114 13.7133 27.1474C14.3106 25.4621 15.1319 23.9794 16.1773 22.6994C17.2439 21.3981 18.5666 20.3634 20.1453 19.5954C21.7453 18.8274 23.4733 18.4434 25.3293 18.4434C28.6359 18.4434 30.8333 19.9368 31.9213 22.9234ZM37.8823 27.7234C38.9703 26.0594 40.5383 25.2274 42.5863 25.2274C44.6343 25.2274 46.2663 26.0594 47.4823 27.7234C48.7196 29.3874 49.3383 31.2861 49.3383 33.4194C49.3383 35.5314 48.6663 37.3234 47.3223 38.7954C45.9783 40.2674 44.2716 41.0034 42.2023 41.0034C40.1329 41.0034 38.6289 40.4274 37.6903 39.2754C36.7516 38.1021 36.2823 36.4594 36.2823 34.3474C36.2823 31.5954 36.8156 29.3874 37.8823 27.7234ZM39.2903 29.4194C39.0129 30.2514 38.7996 31.0834 38.6503 31.9154C38.5223 32.7474 38.4583 33.5261 38.4583 34.2514C38.4583 34.9554 38.5116 35.6061 38.6183 36.2034C38.7249 36.7794 38.9063 37.3554 39.1623 37.9314C39.4183 38.4861 39.8023 38.9341 40.3143 39.2754C40.8263 39.5954 41.4343 39.7554 42.1383 39.7554C43.5676 39.7554 44.7623 39.1688 45.7223 37.9954C46.7036 36.8221 47.1943 35.4034 47.1943 33.7394C47.1943 32.0754 46.7463 30.4648 45.8503 28.9074C44.9756 27.3288 43.8983 26.5394 42.6183 26.5394C41.8503 26.5394 41.1783 26.8061 40.6023 27.3394C40.0263 27.8728 39.5889 28.5661 39.2903 29.4194ZM65.6338 40.1074C65.2498 40.5128 64.8124 40.7154 64.3218 40.7154C63.4044 40.7154 62.7218 40.2248 62.2738 39.2434C61.8258 38.2621 61.5591 37.0674 61.4738 35.6594C61.4098 34.2514 61.3671 32.8434 61.3458 31.4354C61.3244 30.0274 61.2071 28.8328 60.9938 27.8514C60.8018 26.8701 60.4284 26.3794 59.8738 26.3794C59.1271 26.3794 58.4871 27.0514 57.9538 28.3954C57.4418 29.7394 57.0791 31.2328 56.8658 32.8754C56.2684 37.4621 55.6924 40.0328 55.1378 40.5874C54.7538 40.7794 54.4231 40.8754 54.1458 40.8754C53.8684 40.8754 53.6338 40.8434 53.4418 40.7794C52.9938 38.8168 52.7058 35.4354 52.5778 30.6354C52.5351 28.2461 52.4924 26.6994 52.4498 25.9954C52.8978 25.6968 53.2818 25.5474 53.6018 25.5474C53.9218 25.5474 54.1778 25.5794 54.3698 25.6434C54.4764 26.5608 54.5298 28.4381 54.5298 31.2754C54.5511 34.1128 54.5724 35.7448 54.5938 36.1714C54.7004 35.7234 54.8284 34.9981 54.9778 33.9954C55.1484 32.9928 55.2978 32.1714 55.4258 31.5314C55.5538 30.8701 55.7564 30.1021 56.0338 29.2274C56.3111 28.3528 56.6204 27.6594 56.9618 27.1474C57.3031 26.6141 57.7724 26.1661 58.3698 25.8034C58.9671 25.4194 59.6391 25.2274 60.3858 25.2274C61.3884 25.2274 62.1138 25.6861 62.5618 26.6034C63.0311 27.4994 63.2871 28.6194 63.3298 29.9634C63.3724 31.3074 63.3938 32.6728 63.3938 34.0594C63.4151 35.4461 63.5858 36.7154 63.9058 37.8674C64.2471 39.0194 64.8231 39.7661 65.6338 40.1074ZM67.7325 27.5954C66.7725 27.5954 66.1218 27.3608 65.7805 26.8914C65.7805 26.5501 65.9192 26.2834 66.1965 26.0914C66.4952 25.8994 66.8152 25.7821 67.1565 25.7394C67.4978 25.6754 68.0525 25.6221 68.8205 25.5794C68.8845 25.0034 68.9165 24.2674 68.9165 23.3714C68.9378 22.4541 68.9592 21.6754 68.9805 21.0354C69.0445 19.3501 69.3005 18.3154 69.7485 17.9314C69.9405 17.7608 70.1432 17.6754 70.3565 17.6754C70.5912 17.6754 70.7938 17.6968 70.9645 17.7394C71.0285 19.2754 71.0605 20.2034 71.0605 20.5234L70.8685 25.3234C70.9112 25.3448 71.0285 25.3554 71.2205 25.3554L73.5245 25.2594C75.1885 25.2594 76.0205 25.5154 76.0205 26.0274C76.0205 26.7528 75.7218 27.1794 75.1245 27.3074C74.8472 27.3714 74.5165 27.4034 74.1325 27.4034C73.7698 27.4034 73.2898 27.3608 72.6925 27.2754C72.1165 27.1688 71.7005 27.1154 71.4445 27.1154C71.1885 27.1154 71.0178 27.1261 70.9325 27.1474C70.8685 27.7661 70.8365 28.3848 70.8365 29.0034C70.8365 29.6008 70.8472 30.3581 70.8685 31.2754C70.9112 32.1714 70.9965 33.2488 71.1245 34.5074C71.2738 35.7661 71.5832 36.8541 72.0525 37.7714C72.5218 38.6674 73.1192 39.1154 73.8445 39.1154C74.2072 39.1154 74.6338 38.9768 75.1245 38.6994C75.6152 38.4008 75.9885 38.2514 76.2445 38.2514C76.5218 38.2514 76.7565 38.3154 76.9485 38.4434C77.1618 38.5501 77.2685 38.6781 77.2685 38.8274C77.2685 39.2754 76.8098 39.7128 75.8925 40.1394C74.9965 40.5448 74.2285 40.7474 73.5885 40.7474C71.2418 40.7474 69.7805 38.5288 69.2045 34.0914C69.0338 32.8114 68.9058 30.6141 68.8205 27.4994C68.4792 27.5634 68.1165 27.5954 67.7325 27.5954ZM89.2813 31.7874L89.1213 35.4674C89.1213 37.3234 89.3346 38.5714 89.7613 39.2114C90.0173 39.6381 90.3693 39.8514 90.8173 39.8514C90.9453 39.8514 91.1266 39.8194 91.3613 39.7554C91.8093 39.6274 92.1826 39.6914 92.4813 39.9474C92.3319 40.6941 91.5853 41.0674 90.2413 41.0674C89.3239 41.0674 88.7159 40.6834 88.4173 39.9154C88.1826 39.3394 88.0119 38.6248 87.9053 37.7714C87.7986 36.8968 87.7133 36.2994 87.6493 35.9794C86.2626 38.6248 84.9186 40.2354 83.6173 40.8114C82.9559 41.1101 82.1879 41.2594 81.3133 41.2594C80.4386 41.2594 79.7559 40.8434 79.2653 40.0114C78.7959 39.1581 78.5613 37.9208 78.5613 36.2994C78.5613 34.6781 78.8279 32.9821 79.3613 31.2114C79.8946 29.4194 80.6733 27.9154 81.6973 26.6994C82.7213 25.4621 83.8413 24.8434 85.0573 24.8434C86.8066 24.8434 87.9693 25.5688 88.5453 27.0194C89.0359 28.2568 89.2813 29.8461 89.2813 31.7874ZM81.4413 30.7634C81.1426 31.9154 80.9186 33.0141 80.7693 34.0594C80.6199 35.0834 80.5453 36.0008 80.5453 36.8114C80.5453 37.6008 80.7053 38.2834 81.0253 38.8594C81.3666 39.4354 81.8039 39.7234 82.3373 39.7234C83.4893 39.7234 84.5986 38.6354 85.6653 36.4594C86.7319 34.2834 87.2653 32.2568 87.2653 30.3794C87.2653 29.1634 86.9453 28.1608 86.3053 27.3714C85.8786 26.8594 85.3133 26.6034 84.6093 26.6034C83.9266 26.6034 83.2973 27.0088 82.7213 27.8194C82.1666 28.6088 81.7399 29.5901 81.4413 30.7634ZM104.296 29.0034C103.891 29.4088 103.486 29.6114 103.08 29.6114C102.675 29.6114 102.344 29.4408 102.088 29.0994C101.854 28.7368 101.662 28.3528 101.512 27.9474C101.363 27.5208 101.086 27.1368 100.68 26.7954C100.296 26.4328 99.8056 26.2514 99.2083 26.2514C98.3763 26.3368 97.6189 26.9341 96.9363 28.0434C96.2536 29.1314 95.7523 30.3368 95.4323 31.6594C95.1123 32.9821 94.9523 34.2301 94.9523 35.4034C94.9523 36.5554 95.2723 37.5581 95.9123 38.4114C96.5736 39.2434 97.4589 39.6594 98.5683 39.6594C99.8483 39.6594 100.872 39.2114 101.64 38.3154C101.96 37.9314 102.259 37.5474 102.536 37.1634C103.219 36.2674 103.838 35.8194 104.392 35.8194C104.584 35.8194 104.862 35.8728 105.224 35.9794C105.224 36.7688 104.499 37.8141 103.048 39.1154C101.619 40.3954 100.062 41.0354 98.3763 41.0354C96.6909 41.0354 95.3576 40.5021 94.3763 39.4354C93.4163 38.3474 92.9363 36.9501 92.9363 35.2434C92.9363 33.0461 93.4696 30.8488 94.5363 28.6514C95.0696 27.5848 95.7949 26.7101 96.7123 26.0274C97.6296 25.3234 98.6536 24.9714 99.7843 24.9714C100.915 24.9714 101.822 25.3554 102.504 26.1234C103.208 26.8701 103.806 27.8301 104.296 29.0034ZM107.858 27.5954C106.898 27.5954 106.247 27.3608 105.905 26.8914C105.905 26.5501 106.044 26.2834 106.322 26.0914C106.62 25.8994 106.94 25.7821 107.282 25.7394C107.623 25.6754 108.178 25.6221 108.946 25.5794C109.01 25.0034 109.042 24.2674 109.042 23.3714C109.063 22.4541 109.084 21.6754 109.106 21.0354C109.17 19.3501 109.426 18.3154 109.874 17.9314C110.066 17.7608 110.268 17.6754 110.482 17.6754C110.716 17.6754 110.919 17.6968 111.09 17.7394C111.154 19.2754 111.186 20.2034 111.186 20.5234L110.994 25.3234C111.036 25.3448 111.154 25.3554 111.346 25.3554L113.65 25.2594C115.314 25.2594 116.146 25.5154 116.146 26.0274C116.146 26.7528 115.847 27.1794 115.25 27.3074C114.972 27.3714 114.642 27.4034 114.258 27.4034C113.895 27.4034 113.415 27.3608 112.818 27.2754C112.242 27.1688 111.826 27.1154 111.57 27.1154C111.314 27.1154 111.143 27.1261 111.058 27.1474C110.994 27.7661 110.962 28.3848 110.962 29.0034C110.962 29.6008 110.972 30.3581 110.994 31.2754C111.036 32.1714 111.122 33.2488 111.25 34.5074C111.399 35.7661 111.708 36.8541 112.178 37.7714C112.647 38.6674 113.244 39.1154 113.97 39.1154C114.332 39.1154 114.759 38.9768 115.25 38.6994C115.74 38.4008 116.114 38.2514 116.37 38.2514C116.647 38.2514 116.882 38.3154 117.074 38.4434C117.287 38.5501 117.394 38.6781 117.394 38.8274C117.394 39.2754 116.935 39.7128 116.018 40.1394C115.122 40.5448 114.354 40.7474 113.714 40.7474C111.367 40.7474 109.906 38.5288 109.33 34.0914C109.159 32.8114 109.031 30.6141 108.946 27.4994C108.604 27.5634 108.242 27.5954 107.858 27.5954ZM126.705 34.3794L126.993 20.0434C126.993 18.9341 126.929 18.1768 126.801 17.7714C127.185 17.4301 127.772 17.2594 128.561 17.2594C128.881 19.5421 129.041 22.4754 129.041 26.0594C129.041 27.1261 128.945 29.6008 128.753 33.4834C129.756 28.0861 131.548 25.3874 134.129 25.3874C135.046 25.3874 135.75 25.8781 136.241 26.8594C136.753 27.8194 137.073 28.9928 137.201 30.3794C137.329 31.7661 137.436 33.1528 137.521 34.5394C137.734 37.8674 138.332 39.5314 139.313 39.5314C139.334 39.5314 139.537 39.4674 139.921 39.3394C140.774 39.0834 141.254 39.0194 141.361 39.1474C141.361 39.3821 141.03 39.6808 140.369 40.0434C139.708 40.3848 139.1 40.5554 138.545 40.5554C137.606 40.5554 136.881 40.0754 136.369 39.1154C135.878 38.1341 135.569 36.9501 135.441 35.5634C135.334 34.1768 135.249 32.8008 135.185 31.4354C135.142 30.0488 135.004 28.8754 134.769 27.9154C134.534 26.9341 134.14 26.4434 133.585 26.4434C132.902 26.4434 132.273 27.1901 131.697 28.6834C131.142 30.1554 130.705 31.7874 130.385 33.5794C130.065 35.3714 129.67 37.0141 129.201 38.5074C128.753 39.9794 128.294 40.7154 127.825 40.7154C127.078 40.7154 126.705 38.6034 126.705 34.3794ZM143.77 34.5074C143.727 34.9341 143.706 35.2221 143.706 35.3714C143.706 36.6514 144.09 37.6434 144.858 38.3474C145.647 39.0514 146.575 39.4034 147.642 39.4034C148.709 39.4034 149.573 39.2541 150.234 38.9554C150.917 38.6568 151.407 38.3368 151.706 37.9954C152.474 37.0354 153.178 36.5554 153.818 36.5554C154.053 36.5554 154.33 36.6194 154.65 36.7474C154.437 37.7928 153.626 38.7528 152.218 39.6274C150.831 40.4808 149.082 40.9074 146.97 40.9074C145.477 40.9074 144.186 40.4381 143.098 39.4994C142.031 38.5394 141.498 37.2381 141.498 35.5954C141.498 33.9528 141.818 32.3634 142.458 30.8274C143.119 29.2701 144.058 27.9474 145.274 26.8594C146.511 25.7501 147.759 25.1954 149.018 25.1954C150.298 25.1954 151.322 25.4621 152.09 25.9954C152.879 26.5074 153.274 27.2648 153.274 28.2674C153.274 30.1234 152.442 31.6594 150.778 32.8754C149.135 34.0701 147.386 34.6674 145.53 34.6674C145.039 34.6674 144.453 34.6141 143.77 34.5074ZM146.202 33.4514C147.205 33.4514 148.101 33.1314 148.89 32.4914C149.679 31.8514 150.234 31.1794 150.554 30.4754C150.895 29.7714 151.066 29.1314 151.066 28.5554C151.066 27.9794 150.842 27.4781 150.394 27.0514C149.946 26.6034 149.423 26.3794 148.826 26.3794C147.759 26.3794 146.767 27.1154 145.85 28.5874C144.954 30.0594 144.314 31.5848 143.93 33.1634C144.869 33.3554 145.626 33.4514 146.202 33.4514ZM160.399 37.8674L160.495 39.6914C160.495 40.1608 160.356 40.4914 160.079 40.6834C159.823 40.8541 159.556 40.9394 159.279 40.9394C159.023 40.9394 158.756 40.8968 158.479 40.8114C158.01 38.3368 157.647 35.2541 157.391 31.5634C157.156 27.8728 157.018 25.7821 156.975 25.2914C157.295 24.9928 157.626 24.8434 157.967 24.8434C158.33 24.8434 158.65 24.8861 158.927 24.9714C159.012 25.5901 159.076 26.9554 159.119 29.0674C159.162 31.1794 159.215 32.5021 159.279 33.0354C159.578 31.2434 160.111 29.5688 160.879 28.0114C161.306 27.1368 161.86 26.4434 162.543 25.9314C163.247 25.3981 163.994 25.1314 164.783 25.1314C165.594 25.1314 166.33 25.4941 166.991 26.2194C167.674 26.9234 168.015 27.5634 168.015 28.1394C168.015 28.3528 167.887 28.5234 167.631 28.6514C167.375 28.7581 167.087 28.8114 166.767 28.8114C166.468 28.8114 166.234 28.6941 166.063 28.4594C165.892 28.2248 165.775 27.9688 165.711 27.6914C165.647 27.3928 165.508 27.1261 165.295 26.8914C165.082 26.6568 164.794 26.5394 164.431 26.5394C163.471 26.5394 162.65 27.4034 161.967 29.1314C160.922 31.7128 160.399 34.6248 160.399 37.8674ZM171.114 34.5074C171.071 34.9341 171.05 35.2221 171.05 35.3714C171.05 36.6514 171.434 37.6434 172.202 38.3474C172.991 39.0514 173.919 39.4034 174.986 39.4034C176.052 39.4034 176.916 39.2541 177.578 38.9554C178.26 38.6568 178.751 38.3368 179.05 37.9954C179.818 37.0354 180.522 36.5554 181.162 36.5554C181.396 36.5554 181.674 36.6194 181.994 36.7474C181.78 37.7928 180.97 38.7528 179.562 39.6274C178.175 40.4808 176.426 40.9074 174.314 40.9074C172.82 40.9074 171.53 40.4381 170.442 39.4994C169.375 38.5394 168.842 37.2381 168.842 35.5954C168.842 33.9528 169.162 32.3634 169.802 30.8274C170.463 29.2701 171.402 27.9474 172.618 26.8594C173.855 25.7501 175.103 25.1954 176.362 25.1954C177.642 25.1954 178.666 25.4621 179.434 25.9954C180.223 26.5074 180.618 27.2648 180.618 28.2674C180.618 30.1234 179.786 31.6594 178.122 32.8754C176.479 34.0701 174.73 34.6674 172.874 34.6674C172.383 34.6674 171.796 34.6141 171.114 34.5074ZM173.546 33.4514C174.548 33.4514 175.444 33.1314 176.234 32.4914C177.023 31.8514 177.578 31.1794 177.898 30.4754C178.239 29.7714 178.41 29.1314 178.41 28.5554C178.41 27.9794 178.186 27.4781 177.738 27.0514C177.29 26.6034 176.767 26.3794 176.17 26.3794C175.103 26.3794 174.111 27.1154 173.194 28.5874C172.298 30.0594 171.658 31.5848 171.274 33.1634C172.212 33.3554 172.97 33.4514 173.546 33.4514Z" fill="#0C0C0C"/>
<path d="M31.9213 22.9234L32.2624 23.2889L32.5043 23.0632L32.3911 22.7523L31.9213 22.9234ZM31.0893 23.5634L30.8498 23.1245V23.1245L31.0893 23.5634ZM30.3853 23.5954L30.1616 24.0426L30.1699 24.0468L30.1783 24.0506L30.3853 23.5954ZM29.9373 23.3394L30.2373 22.9394H30.2372L29.9373 23.3394ZM29.4253 22.7314L29.0055 23.003L29.0149 23.0176L29.0253 23.0314L29.4253 22.7314ZM28.9773 22.0594L29.3773 21.7594L29.3717 21.752L29.3659 21.7448L28.9773 22.0594ZM19.9213 21.7074L20.2157 22.1115L20.2167 22.1108L19.9213 21.7074ZM17.2973 37.4834L16.9511 37.8442L16.9535 37.8465L17.2973 37.4834ZM30.5773 37.5474L30.2816 37.1442L30.2793 37.1459L30.5773 37.5474ZM31.6013 36.5234L31.2215 36.1979L31.2126 36.2088L31.6013 36.5234ZM32.5613 35.5634L32.2766 35.1523L32.2688 35.1577L32.2612 35.1634L32.5613 35.5634ZM33.3293 35.3074L33.284 35.8054L33.2877 35.8057L33.3293 35.3074ZM34.3853 35.5314L34.8303 35.7593L35.1075 35.2178L34.5226 35.0507L34.3853 35.5314ZM29.7773 39.7234L29.9862 40.1777L29.9882 40.1767L29.7773 39.7234ZM15.6333 38.9234L15.9472 38.5343L15.6333 38.9234ZM13.7133 27.1474L14.1839 27.3164L14.1845 27.3145L13.7133 27.1474ZM16.1773 22.6994L15.7906 22.3825L15.79 22.3832L16.1773 22.6994ZM20.1453 19.5954L19.9289 19.1446L19.9265 19.1458L20.1453 19.5954ZM31.5801 22.5579C31.274 22.8436 31.0318 23.0252 30.8498 23.1245L31.3287 24.0024C31.616 23.8456 31.9285 23.6006 32.2624 23.2889L31.5801 22.5579ZM30.8498 23.1245C30.7471 23.1805 30.6777 23.1791 30.5922 23.1402L30.1783 24.0506C30.5622 24.2251 30.962 24.2024 31.3287 24.0024L30.8498 23.1245ZM30.6089 23.1482C30.3978 23.0427 30.2837 22.9742 30.2373 22.9394L29.6372 23.7394C29.7615 23.8326 29.946 23.9348 30.1616 24.0426L30.6089 23.1482ZM30.2372 22.9394C30.2455 22.9456 30.2141 22.9199 30.1277 22.8173C30.0509 22.7262 29.9506 22.5985 29.8253 22.4314L29.0253 23.0314C29.1559 23.2057 29.2689 23.35 29.3628 23.4615C29.4471 23.5616 29.5437 23.6693 29.6373 23.7394L30.2372 22.9394ZM29.845 22.4598C29.614 22.1027 29.454 21.8618 29.3773 21.7594L28.5773 22.3594C28.6285 22.4277 28.7672 22.6348 29.0055 23.003L29.845 22.4598ZM29.3659 21.7448C28.183 20.2836 26.6323 19.5434 24.7533 19.5434V20.5434C26.3303 20.5434 27.5955 21.1472 28.5886 22.374L29.3659 21.7448ZM24.7533 19.5434C22.9297 19.5434 21.2172 20.1385 19.6258 21.304L20.2167 22.1108C21.6547 21.0576 23.1635 20.5434 24.7533 20.5434V19.5434ZM19.6268 21.3033C18.0646 22.4415 16.81 23.9442 15.8602 25.7996L16.7503 26.2553C17.6352 24.5266 18.7912 23.1494 20.2157 22.1115L19.6268 21.3033ZM15.8602 25.7996C14.9081 27.6594 14.4293 29.6039 14.4293 31.6274H15.4293C15.4293 29.7683 15.8677 27.9794 16.7503 26.2553L15.8602 25.7996ZM14.4293 31.6274C14.4293 34.139 15.2645 36.226 16.9511 37.8442L17.6434 37.1226C16.1726 35.7115 15.4293 33.8945 15.4293 31.6274H14.4293ZM16.9535 37.8465C18.6637 39.4655 20.9074 40.2554 23.6333 40.2554V39.2554C21.1111 39.2554 19.1308 38.5307 17.641 37.1203L16.9535 37.8465ZM23.6333 40.2554C26.3778 40.2554 28.7987 39.4895 30.8752 37.949L30.2793 37.1459C28.3878 38.5493 26.1794 39.2554 23.6333 39.2554V40.2554ZM30.8729 37.9506C31.2393 37.6819 31.6112 37.3058 31.9899 36.838L31.2126 36.2088C30.866 36.637 30.5552 36.9436 30.2816 37.1442L30.8729 37.9506ZM31.9809 36.8488C32.3575 36.4095 32.6493 36.1224 32.8613 35.9634L32.2612 35.1634C31.9612 35.3885 31.613 35.7414 31.2216 36.198L31.9809 36.8488ZM32.8459 35.9745C33.0676 35.821 33.2074 35.7984 33.284 35.8054L33.3745 34.8095C32.9817 34.7738 32.6096 34.9218 32.2766 35.1523L32.8459 35.9745ZM33.2877 35.8057C33.4951 35.823 33.8103 35.8872 34.2479 36.0122L34.5226 35.0507C34.0642 34.9197 33.6754 34.8345 33.3708 34.8091L33.2877 35.8057ZM33.9402 35.3036C33.0824 36.9793 31.6389 38.3056 29.5663 39.2701L29.9882 40.1767C32.2249 39.1359 33.8535 37.6675 34.8303 35.7593L33.9402 35.3036ZM29.5683 39.2692C27.5098 40.2161 25.1615 40.6954 22.5133 40.6954V41.6954C25.2837 41.6954 27.778 41.1934 29.9862 40.1777L29.5683 39.2692ZM22.5133 40.6954C19.9033 40.6954 17.7247 39.9684 15.9472 38.5343L15.3193 39.3126C17.2965 40.9078 19.7046 41.6954 22.5133 41.6954V40.6954ZM15.9472 38.5343C14.2107 37.1333 13.3173 35.0928 13.3173 32.3314H12.3173C12.3173 35.33 13.3011 37.6842 15.3193 39.3126L15.9472 38.5343ZM13.3173 32.3314C13.3173 30.5962 13.6062 28.9254 14.1838 27.3163L13.2427 26.9785C12.6256 28.6974 12.3173 30.4826 12.3173 32.3314H13.3173ZM14.1845 27.3145C14.7642 25.6789 15.5584 24.2476 16.5645 23.0157L15.79 22.3832C14.7054 23.7112 13.8569 25.2453 13.242 26.9804L14.1845 27.3145ZM16.5639 23.0164C17.5829 21.7733 18.8473 20.7829 20.364 20.045L19.9265 19.1458C18.2858 19.944 16.905 21.0229 15.7906 22.3825L16.5639 23.0164ZM20.3616 20.0462C21.891 19.3121 23.5446 18.9434 25.3293 18.9434V17.9434C23.4019 17.9434 21.5995 18.3428 19.9289 19.1447L20.3616 20.0462ZM25.3293 18.9434C26.907 18.9434 28.1787 19.299 29.1762 19.977C30.1721 20.6538 30.9361 21.68 31.4515 23.0946L32.3911 22.7523C31.8184 21.1802 30.9397 19.9664 29.7383 19.1499C28.5385 18.3345 27.0582 17.9434 25.3293 17.9434V18.9434ZM37.8822 27.7234L37.4637 27.4498L37.4613 27.4536L37.8822 27.7234ZM47.4823 27.7234L47.0785 28.0184L47.081 28.0218L47.4823 27.7234ZM47.3223 38.7954L46.953 38.4583L47.3223 38.7954ZM37.6903 39.2754L37.2998 39.5878L37.3026 39.5913L37.6903 39.2754ZM39.2903 29.4194L38.8183 29.2542L38.8159 29.2613L39.2903 29.4194ZM38.6502 31.9154L38.158 31.8271L38.1561 31.8394L38.6502 31.9154ZM38.6182 36.2034L38.126 36.2913L38.1266 36.2945L38.6182 36.2034ZM39.1623 37.9314L38.7053 38.1345L38.7083 38.1409L39.1623 37.9314ZM40.3143 39.2754L40.0369 39.6914L40.043 39.6955L40.0493 39.6994L40.3143 39.2754ZM45.7223 37.9954L45.3387 37.6746L45.3353 37.6788L45.7223 37.9954ZM45.8503 28.9074L45.4128 29.1498L45.4169 29.1568L45.8503 28.9074ZM40.6022 27.3394L40.2625 26.9725L40.6022 27.3394ZM38.3007 27.997C39.2931 26.4793 40.7009 25.7274 42.5863 25.7274V24.7274C40.3756 24.7274 38.6474 25.6395 37.4638 27.4498L38.3007 27.997ZM42.5863 25.7274C44.4735 25.7274 45.956 26.4823 47.0786 28.0184L47.8859 27.4284C46.5765 25.6365 44.795 24.7274 42.5863 24.7274V25.7274ZM47.081 28.0218C48.2523 29.5969 48.8382 31.3902 48.8382 33.4194H49.8382C49.8382 31.1819 49.1869 29.1779 47.8835 27.4251L47.081 28.0218ZM48.8382 33.4194C48.8382 35.4148 48.2076 37.0842 46.953 38.4583L47.6915 39.1326C49.1249 37.5626 49.8382 35.648 49.8382 33.4194H48.8382ZM46.953 38.4583C45.7078 39.8221 44.1372 40.5034 42.2023 40.5034V41.5034C44.406 41.5034 46.2487 40.7127 47.6915 39.1326L46.953 38.4583ZM42.2023 40.5034C40.2212 40.5034 38.8883 39.9542 38.0779 38.9596L37.3026 39.5913C38.3695 40.9006 40.0447 41.5034 42.2023 41.5034V40.5034ZM38.0807 38.9631C37.2368 37.9082 36.7822 36.3911 36.7822 34.3474H35.7822C35.7822 36.5277 36.2664 38.2959 37.2998 39.5878L38.0807 38.9631ZM36.7822 34.3474C36.7822 31.655 37.3047 29.551 38.3032 27.9932L37.4613 27.4536C36.3265 29.2239 35.7822 31.5358 35.7822 34.3474H36.7822ZM38.8159 29.2613C38.5313 30.1153 38.3118 30.9706 38.1581 31.8271L39.1424 32.0037C39.2873 31.1963 39.4946 30.3876 39.7646 29.5775L38.8159 29.2613ZM38.1561 31.8394C38.0248 32.6927 37.9583 33.497 37.9583 34.2514H38.9583C38.9583 33.5552 39.0197 32.8022 39.1444 31.9914L38.1561 31.8394ZM37.9583 34.2514C37.9583 34.9803 38.0134 35.6608 38.126 36.2913L39.1105 36.1155C39.0097 35.5514 38.9583 34.9305 38.9583 34.2514H37.9583ZM38.1266 36.2945C38.2409 36.9118 38.4346 37.5253 38.7053 38.1345L39.6192 37.7283C39.3779 37.1855 39.2089 36.647 39.1099 36.1124L38.1266 36.2945ZM38.7083 38.1409C39.0033 38.7801 39.4487 39.2993 40.0369 39.6914L40.5916 38.8594C40.1558 38.5689 39.8332 38.1921 39.6162 37.7219L38.7083 38.1409ZM40.0493 39.6994C40.6531 40.0769 41.3564 40.2554 42.1383 40.2554V39.2554C41.5121 39.2554 40.9994 39.114 40.5793 38.8514L40.0493 39.6994ZM42.1383 40.2554C43.7277 40.2554 45.0609 39.5934 46.1092 38.312L45.3353 37.6788C44.4636 38.7441 43.4075 39.2554 42.1383 39.2554V40.2554ZM46.1058 38.3162C47.1692 37.0448 47.6943 35.5096 47.6943 33.7394H46.6943C46.6943 35.2972 46.238 36.5994 45.3387 37.6746L46.1058 38.3162ZM47.6943 33.7394C47.6943 31.981 47.2197 30.285 46.2836 28.6581L45.4169 29.1568C46.2728 30.6445 46.6943 32.1699 46.6943 33.7394H47.6943ZM46.2876 28.6651C45.3654 27.0006 44.1507 26.0394 42.6182 26.0394V27.0394C43.6458 27.0394 44.5858 27.6569 45.4129 29.1497L46.2876 28.6651ZM42.6182 26.0394C41.7212 26.0394 40.9287 26.3557 40.2625 26.9725L40.942 27.7063C41.4278 27.2564 41.9793 27.0394 42.6182 27.0394V26.0394ZM40.2625 26.9725C39.6182 27.5692 39.1398 28.3357 38.8183 29.2542L39.7622 29.5846C40.038 28.7965 40.4343 28.1763 40.942 27.7063L40.2625 26.9725ZM65.6338 40.1074L65.9967 40.4513L66.4935 39.9269L65.8278 39.6466L65.6338 40.1074ZM62.2738 39.2434L62.7286 39.0358L62.2738 39.2434ZM61.4738 35.6594L60.9742 35.6821L60.9747 35.6897L61.4738 35.6594ZM61.3457 31.4354L61.8457 31.4278L61.3457 31.4354ZM60.9938 27.8514L60.5029 27.9474L60.5052 27.9576L60.9938 27.8514ZM57.9538 28.3954L57.489 28.211L57.4865 28.2174L57.9538 28.3954ZM56.8657 32.8754L57.3616 32.94L57.3616 32.9398L56.8657 32.8754ZM55.1377 40.5874L55.3614 41.0346L55.4339 40.9983L55.4913 40.941L55.1377 40.5874ZM53.4417 40.7794L52.9543 40.8907L53.0169 41.1648L53.2836 41.2538L53.4417 40.7794ZM52.5778 30.6354L52.0778 30.6443L52.0779 30.6487L52.5778 30.6354ZM52.4497 25.9954L52.1724 25.5794L51.9333 25.7388L51.9507 26.0257L52.4497 25.9954ZM54.3698 25.6434L54.8664 25.5857L54.8297 25.2697L54.5279 25.1691L54.3698 25.6434ZM54.5298 31.2754H54.0297L54.0298 31.2792L54.5298 31.2754ZM54.5938 36.1714L54.0944 36.1964L55.0802 36.2872L54.5938 36.1714ZM54.9777 33.9954L54.4847 33.9115L54.4832 33.9218L54.9777 33.9954ZM55.4258 31.5314L55.916 31.6295L55.9166 31.6264L55.4258 31.5314ZM56.0337 29.2274L55.5571 29.0763V29.0763L56.0337 29.2274ZM56.9618 27.1474L57.3778 27.4248L57.3829 27.4169L56.9618 27.1474ZM58.3698 25.8034L58.6293 26.231L58.6401 26.224L58.3698 25.8034ZM62.5618 26.6034L62.1123 26.8229L62.1188 26.8354L62.5618 26.6034ZM63.3298 29.9634L63.8295 29.9476L63.3298 29.9634ZM63.3937 34.0594H62.8937L62.8938 34.0671L63.3937 34.0594ZM63.9058 37.8674L63.4239 38.0013L63.4263 38.0095L63.9058 37.8674ZM65.2708 39.7635C64.9669 40.0843 64.6556 40.2154 64.3218 40.2154V41.2154C64.9692 41.2154 65.5326 40.9412 65.9967 40.4513L65.2708 39.7635ZM64.3218 40.2154C63.9578 40.2154 63.6621 40.12 63.4136 39.9414C63.1602 39.7593 62.9265 39.4692 62.7286 39.0358L61.8189 39.4511C62.069 39.999 62.4006 40.4449 62.8299 40.7534C63.2641 41.0655 63.7684 41.2154 64.3218 41.2154V40.2154ZM62.7286 39.0358C62.3126 38.1246 62.0555 36.9937 61.9728 35.6292L60.9747 35.6897C61.0626 37.1411 61.3389 38.3996 61.8189 39.4511L62.7286 39.0358ZM61.9732 35.6367C61.9095 34.2337 61.867 32.8308 61.8457 31.4278L60.8458 31.443C60.8672 32.856 60.91 34.2691 60.9743 35.6821L61.9732 35.6367ZM61.8457 31.4278C61.824 29.9988 61.7049 28.769 61.4823 27.7452L60.5052 27.9576C60.7093 28.8965 60.8248 30.056 60.8458 31.443L61.8457 31.4278ZM61.4844 27.7554C61.3819 27.231 61.2208 26.7774 60.9677 26.4447C60.6985 26.091 60.3262 25.8794 59.8737 25.8794V26.8794C59.976 26.8794 60.0676 26.9132 60.1718 27.0502C60.292 27.2081 60.4137 27.4905 60.5031 27.9474L61.4844 27.7554ZM59.8737 25.8794C59.3318 25.8794 58.8616 26.1292 58.4717 26.5386C58.0898 26.9395 57.7676 27.509 57.489 28.211L58.4185 28.5798C58.6733 27.9378 58.9377 27.4993 59.1958 27.2282C59.4459 26.9657 59.6691 26.8794 59.8737 26.8794V25.8794ZM57.4865 28.2174C56.9586 29.6031 56.5876 31.1352 56.3699 32.811L57.3616 32.9398C57.5706 31.3303 57.9249 29.8758 58.421 28.5734L57.4865 28.2174ZM56.3699 32.8108C56.072 35.0985 55.781 36.8706 55.4978 38.1341C55.3561 38.7666 55.2188 39.2605 55.0876 39.6233C54.9494 40.0053 54.8394 40.1786 54.7842 40.2339L55.4913 40.941C55.7134 40.7189 55.8835 40.3629 56.0279 39.9635C56.1793 39.545 56.3274 39.0056 56.4737 38.3527C56.7665 37.0456 57.0622 35.239 57.3616 32.94L56.3699 32.8108ZM54.9141 40.1402C54.5652 40.3147 54.3145 40.3754 54.1458 40.3754V41.3754C54.5317 41.3754 54.9423 41.2441 55.3614 41.0346L54.9141 40.1402ZM54.1458 40.3754C53.9037 40.3754 53.7259 40.3471 53.5999 40.3051L53.2836 41.2538C53.5416 41.3397 53.8331 41.3754 54.1458 41.3754V40.3754ZM53.9292 40.6681C53.4934 38.7587 53.2056 35.4218 53.0776 30.6221L52.0779 30.6487C52.2059 35.449 52.4941 38.8748 52.9543 40.8907L53.9292 40.6681ZM53.0777 30.6265C53.0351 28.2399 52.9923 26.6819 52.9488 25.9652L51.9507 26.0257C51.9926 26.7169 52.0351 28.2523 52.0778 30.6443L53.0777 30.6265ZM52.7271 26.4114C53.1431 26.1341 53.4272 26.0474 53.6017 26.0474V25.0474C53.1363 25.0474 52.6524 25.2594 52.1724 25.5794L52.7271 26.4114ZM53.6017 26.0474C53.8954 26.0474 54.0914 26.0777 54.2116 26.1178L54.5279 25.1691C54.2641 25.0812 53.9481 25.0474 53.6017 25.0474V26.0474ZM53.8731 25.7012C53.9758 26.5848 54.0298 28.4327 54.0298 31.2754H55.0298C55.0298 28.4435 54.977 26.5367 54.8664 25.5857L53.8731 25.7012ZM54.0298 31.2792C54.051 34.1093 54.0724 35.7561 54.0944 36.1964L55.0931 36.1464C55.0725 35.7334 55.0511 34.1162 55.0297 31.2717L54.0298 31.2792ZM55.0802 36.2872C55.1922 35.8168 55.3227 35.0733 55.4723 34.0691L54.4832 33.9218C54.3341 34.9229 54.2087 35.63 54.1073 36.0556L55.0802 36.2872ZM55.4707 34.0793C55.6409 33.0791 55.7893 32.2629 55.916 31.6295L54.9355 31.4334C54.8062 32.0799 54.6559 32.9064 54.4848 33.9115L55.4707 34.0793ZM55.9166 31.6264C56.0399 30.9894 56.2369 30.2409 56.5104 29.3785L55.5571 29.0763C55.2759 29.9633 55.0676 30.7507 54.9349 31.4364L55.9166 31.6264ZM56.5104 29.3785C56.7798 28.5289 57.0718 27.8837 57.3778 27.4248L56.5457 26.8701C56.169 27.4352 55.8424 28.1766 55.5571 29.0763L56.5104 29.3785ZM57.3829 27.4169C57.679 26.9543 58.0903 26.558 58.6292 26.2308L58.1103 25.376C57.4546 25.7741 56.9272 26.2739 56.5406 26.8779L57.3829 27.4169ZM58.6401 26.224C59.1526 25.8946 59.7298 25.7274 60.3857 25.7274V24.7274C59.5484 24.7274 58.7816 24.9442 58.0994 25.3828L58.6401 26.224ZM60.3857 25.7274C60.8087 25.7274 61.1445 25.8233 61.4145 25.994C61.6851 26.1651 61.9214 26.4315 62.1125 26.8228L63.011 26.384C62.7541 25.858 62.4037 25.4364 61.949 25.1488C61.4937 24.8609 60.9655 24.7274 60.3857 24.7274V25.7274ZM62.1188 26.8354C62.5436 27.6463 62.789 28.687 62.83 29.9793L63.8295 29.9476C63.7852 28.5519 63.5186 27.3525 63.0047 26.3714L62.1188 26.8354ZM62.83 29.9793C62.8725 31.3178 62.8937 32.6779 62.8937 34.0594H63.8937C63.8937 32.6676 63.8723 31.297 63.8295 29.9476L62.83 29.9793ZM62.8938 34.0671C62.9157 35.4898 63.0909 36.8022 63.424 38.0012L64.3875 37.7336C64.0806 36.6286 63.9145 35.4024 63.8937 34.0517L62.8938 34.0671ZM63.4263 38.0095C63.7938 39.2495 64.4452 40.1495 65.4397 40.5682L65.8278 39.6466C65.201 39.3827 64.7004 38.7894 64.3852 37.7254L63.4263 38.0095ZM65.7805 26.8914H65.2805V27.054L65.3761 27.1855L65.7805 26.8914ZM66.1965 26.0914L65.9261 25.6708L65.9189 25.6755L65.9119 25.6803L66.1965 26.0914ZM67.1565 25.7394L67.2185 26.2356L67.2337 26.2337L67.2486 26.2309L67.1565 25.7394ZM68.8205 25.5794L68.8482 26.0786L69.2707 26.0552L69.3174 25.6346L68.8205 25.5794ZM68.9165 23.3714L68.4165 23.3598V23.3714H68.9165ZM68.9805 21.0354L68.4809 21.0164L68.4808 21.0188L68.9805 21.0354ZM69.7485 17.9314L70.0739 18.3111L70.0807 18.3051L69.7485 17.9314ZM70.9645 17.7394L71.4641 17.7186L71.4485 17.345L71.0858 17.2543L70.9645 17.7394ZM71.0605 20.5234L71.5601 20.5434L71.5605 20.5334V20.5234H71.0605ZM70.8685 25.3234L70.3689 25.3034L70.356 25.6262L70.6449 25.7706L70.8685 25.3234ZM71.2205 25.3554V25.8554H71.2309L71.2413 25.855L71.2205 25.3554ZM73.5245 25.2594V24.7594H73.5141L73.5037 24.7599L73.5245 25.2594ZM75.1245 27.3074L75.0197 26.8185L75.0121 26.8202L75.1245 27.3074ZM72.6925 27.2754L72.6015 27.7671L72.6116 27.7689L72.6218 27.7704L72.6925 27.2754ZM70.9325 27.1474L70.8112 26.6623L70.4712 26.7473L70.4352 27.096L70.9325 27.1474ZM70.8685 31.2754L70.3685 31.287L70.3691 31.2992L70.8685 31.2754ZM71.1245 34.5074L70.627 34.558L70.628 34.5663L71.1245 34.5074ZM72.0525 37.7714L71.6074 37.9992L71.6096 38.0034L72.0525 37.7714ZM75.1245 38.6994L75.3705 39.1347L75.3776 39.1307L75.3845 39.1265L75.1245 38.6994ZM76.9485 38.4434L76.6712 38.8594L76.6971 38.8767L76.7249 38.8906L76.9485 38.4434ZM75.8925 40.1394L76.0986 40.595L76.1034 40.5928L75.8925 40.1394ZM69.2045 34.0914L69.7003 34.0271L69.7001 34.0253L69.2045 34.0914ZM68.8205 27.4994L69.3203 27.4857L69.3043 26.9L68.7284 27.008L68.8205 27.4994ZM67.7325 27.0954C66.8279 27.0954 66.384 26.8712 66.1849 26.5973L65.3761 27.1855C65.8596 27.8503 66.7171 28.0954 67.7325 28.0954V27.0954ZM66.2805 26.8914C66.2805 26.7118 66.3406 26.5998 66.4811 26.5025L65.9119 25.6803C65.4977 25.967 65.2805 26.3884 65.2805 26.8914H66.2805ZM66.4669 26.512C66.7047 26.3591 66.9538 26.2686 67.2185 26.2356L67.0945 25.2433C66.6765 25.2955 66.2856 25.4397 65.9261 25.6708L66.4669 26.512ZM67.2486 26.2309C67.5556 26.1733 68.0824 26.1212 68.8482 26.0786L68.7928 25.0802C68.0226 25.123 67.44 25.1775 67.0644 25.248L67.2486 26.2309ZM69.3174 25.6346C69.3843 25.0333 69.4165 24.2771 69.4165 23.3714H68.4165C68.4165 24.2578 68.3847 24.9736 68.3236 25.5242L69.3174 25.6346ZM69.4164 23.383C69.4377 22.4667 69.459 21.6899 69.4802 21.0521L68.4808 21.0188C68.4594 21.661 68.438 22.4414 68.4166 23.3598L69.4164 23.383ZM69.4801 21.0544C69.5115 20.2286 69.5894 19.5864 69.7059 19.1155C69.8265 18.6281 69.9706 18.3996 70.0739 18.311L69.4231 17.5518C69.0784 17.8473 68.8705 18.3281 68.7351 18.8753C68.5956 19.4391 68.5135 20.1569 68.4809 21.0164L69.4801 21.0544ZM70.0807 18.3051C70.2008 18.1984 70.2896 18.1754 70.3565 18.1754V17.1754C69.9968 17.1754 69.6802 17.3231 69.4163 17.5577L70.0807 18.3051ZM70.3565 18.1754C70.563 18.1754 70.7229 18.1944 70.8432 18.2245L71.0858 17.2543C70.8648 17.1991 70.6194 17.1754 70.3565 17.1754V18.1754ZM70.4649 17.7602C70.5291 19.3014 70.5605 20.2165 70.5605 20.5234H71.5605C71.5605 20.1904 71.5279 19.2495 71.4641 17.7186L70.4649 17.7602ZM70.5609 20.5034L70.3689 25.3034L71.3681 25.3434L71.5601 20.5434L70.5609 20.5034ZM70.6449 25.7706C70.7601 25.8282 70.8877 25.8403 70.9432 25.8454C71.0233 25.8526 71.1175 25.8554 71.2205 25.8554V24.8554C71.1315 24.8554 71.071 24.8529 71.0338 24.8495C71.0151 24.8478 71.0093 24.8465 71.0126 24.8471C71.0145 24.8475 71.0221 24.8491 71.0336 24.8526C71.0443 24.8558 71.0655 24.8629 71.0921 24.8762L70.6449 25.7706ZM71.2413 25.855L73.5453 25.759L73.5037 24.7599L71.1997 24.8559L71.2413 25.855ZM73.5245 25.7594C74.3433 25.7594 74.9067 25.8238 75.2495 25.9293C75.6238 26.0445 75.5205 26.1268 75.5205 26.0274H76.5205C76.5205 25.416 76.0012 25.1143 75.5435 24.9735C75.0543 24.823 74.3697 24.7594 73.5245 24.7594V25.7594ZM75.5205 26.0274C75.5205 26.3266 75.4584 26.5026 75.3869 26.6047C75.3223 26.6969 75.2177 26.7761 75.0197 26.8185L75.2293 27.7963C75.6287 27.7107 75.972 27.5126 76.2061 27.1781C76.4333 26.8536 76.5205 26.4536 76.5205 26.0274H75.5205ZM75.0121 26.8202C74.7819 26.8733 74.4909 26.9034 74.1325 26.9034V27.9034C74.5421 27.9034 74.9125 27.8695 75.2369 27.7946L75.0121 26.8202ZM74.1325 26.9034C73.8039 26.9034 73.3503 26.8643 72.7632 26.7804L72.6218 27.7704C73.2294 27.8572 73.7358 27.9034 74.1325 27.9034V26.9034ZM72.7835 26.7838C72.2058 26.6768 71.7504 26.6154 71.4445 26.6154V27.6154C71.6506 27.6154 72.0272 27.6607 72.6015 27.7671L72.7835 26.7838ZM71.4445 26.6154C71.1978 26.6154 70.9658 26.6237 70.8112 26.6623L71.0538 27.6325C71.0509 27.6332 71.078 27.6273 71.1557 27.6224C71.2269 27.618 71.3223 27.6154 71.4445 27.6154V26.6154ZM70.4352 27.096C70.3694 27.7316 70.3365 28.3675 70.3365 29.0034H71.3365C71.3365 28.402 71.3676 27.8005 71.4298 27.1989L70.4352 27.096ZM70.3365 29.0034C70.3365 29.6061 70.3473 30.3676 70.3686 31.287L71.3684 31.2638C71.3471 30.3485 71.3365 29.5954 71.3365 29.0034H70.3365ZM70.3691 31.2992C70.4123 32.2069 70.4985 33.2937 70.6271 34.558L71.6219 34.4568C71.4945 33.2038 71.41 32.1359 71.3679 31.2516L70.3691 31.2992ZM70.628 34.5663C70.7827 35.8708 71.1056 37.0185 71.6074 37.9992L72.4976 37.5437C72.0607 36.6897 71.7649 35.6614 71.621 34.4485L70.628 34.5663ZM71.6096 38.0034C72.1264 38.9901 72.8622 39.6154 73.8445 39.6154V38.6154C73.3761 38.6154 72.9173 38.3448 72.4954 37.5394L71.6096 38.0034ZM73.8445 39.6154C74.3284 39.6154 74.8427 39.433 75.3705 39.1347L74.8785 38.2641C74.425 38.5205 74.0859 38.6154 73.8445 38.6154V39.6154ZM75.3845 39.1265C75.8721 38.8297 76.1401 38.7514 76.2445 38.7514V37.7514C75.8369 37.7514 75.3582 37.9718 74.8645 38.2723L75.3845 39.1265ZM76.2445 38.7514C76.4433 38.7514 76.5766 38.7964 76.6712 38.8594L77.2259 38.0274C76.9364 37.8344 76.6003 37.7514 76.2445 37.7514V38.7514ZM76.7249 38.8906C76.7579 38.9071 76.7796 38.9209 76.7928 38.9306C76.8061 38.9404 76.8081 38.944 76.8044 38.9395C76.8002 38.9345 76.7904 38.9211 76.7818 38.8989C76.773 38.876 76.7685 38.8511 76.7685 38.8274H77.7685C77.7685 38.391 77.4449 38.1326 77.1721 37.9962L76.7249 38.8906ZM76.7685 38.8274C76.7685 38.8661 76.7516 38.9654 76.5795 39.1295C76.4059 39.295 76.1167 39.4837 75.6816 39.6861L76.1034 40.5928C76.5856 40.3685 76.9844 40.1251 77.2695 39.8533C77.556 39.5801 77.7685 39.2368 77.7685 38.8274H76.7685ZM75.6864 39.6839C74.8239 40.0741 74.1296 40.2474 73.5885 40.2474V41.2474C74.3274 41.2474 75.1691 41.0154 76.0986 40.595L75.6864 39.6839ZM73.5885 40.2474C72.6078 40.2474 71.8026 39.799 71.1501 38.8084C70.4804 37.7917 69.9844 36.2154 69.7003 34.0271L68.7087 34.1558C69.0006 36.4048 69.5233 38.1565 70.3149 39.3584C71.1238 40.5865 72.2225 41.2474 73.5885 41.2474V40.2474ZM69.7001 34.0253C69.5333 32.7741 69.4056 30.6004 69.3203 27.4857L68.3207 27.5131C68.406 30.6278 68.5344 32.8487 68.7089 34.1575L69.7001 34.0253ZM68.7284 27.008C68.4204 27.0657 68.0888 27.0954 67.7325 27.0954V28.0954C68.1442 28.0954 68.5379 28.0611 68.9126 27.9909L68.7284 27.008ZM89.2812 31.7874L89.7808 31.8091L89.7812 31.7983V31.7874H89.2812ZM89.1212 35.4674L88.6217 35.4457L88.6212 35.4566V35.4674H89.1212ZM89.7613 39.2114L90.19 38.9542L90.1839 38.944L90.1773 38.9341L89.7613 39.2114ZM91.3613 39.7554L91.4928 40.2378L91.4986 40.2362L91.3613 39.7554ZM92.4812 39.9474L92.9715 40.0455L93.029 39.7584L92.8066 39.5678L92.4812 39.9474ZM88.4173 39.9154L88.8833 39.7342L88.8803 39.7268L88.4173 39.9154ZM87.9053 37.7714L87.4089 37.8319L87.4091 37.8334L87.9053 37.7714ZM87.6492 35.9794L88.1395 35.8814L87.8624 34.4958L87.2064 35.7473L87.6492 35.9794ZM83.6172 40.8114L83.4149 40.3542L83.4115 40.3557L83.6172 40.8114ZM79.2653 40.0114L78.8271 40.2524L78.8308 40.2589L78.8346 40.2654L79.2653 40.0114ZM79.3613 31.2114L79.84 31.3556L79.8405 31.354L79.3613 31.2114ZM81.6973 26.6994L82.0797 27.0215L82.0825 27.0182L81.6973 26.6994ZM88.5452 27.0194L89.01 26.8351L89.01 26.8349L88.5452 27.0194ZM81.4413 30.7634L81.9253 30.8889L81.9258 30.8868L81.4413 30.7634ZM80.7692 34.0594L81.264 34.1316L81.2642 34.1301L80.7692 34.0594ZM81.0253 38.8594L80.588 39.1023L80.5951 39.1143L81.0253 38.8594ZM85.6653 36.4594L86.1142 36.6795L85.6653 36.4594ZM86.3053 27.3714L86.6937 27.0565L86.6894 27.0513L86.3053 27.3714ZM82.7213 27.8194L82.3137 27.5298L82.3122 27.5319L82.7213 27.8194ZM88.7817 31.7657L88.6217 35.4457L89.6208 35.4891L89.7808 31.8091L88.7817 31.7657ZM88.6212 35.4674C88.6212 36.4119 88.6753 37.2183 88.7884 37.8797C88.9002 38.5337 89.0758 39.0847 89.3452 39.4888L90.1773 38.9341C90.02 38.6981 89.8756 38.3052 89.7741 37.7112C89.6738 37.1246 89.6212 36.3789 89.6212 35.4674H88.6212ZM89.3325 39.4687C89.6669 40.0259 90.1715 40.3514 90.8173 40.3514V39.3514C90.567 39.3514 90.3676 39.2502 90.19 38.9542L89.3325 39.4687ZM90.8173 40.3514C91.0133 40.3514 91.2464 40.305 91.4928 40.2378L91.2297 39.273C91.0068 39.3338 90.8772 39.3514 90.8173 39.3514V40.3514ZM91.4986 40.2362C91.8196 40.1445 92.0097 40.2017 92.1559 40.327L92.8066 39.5678C92.3555 39.1811 91.7989 39.1104 91.2239 39.2747L91.4986 40.2362ZM91.991 39.8494C91.9497 40.0554 91.8362 40.2149 91.5856 40.3402C91.3115 40.4773 90.8778 40.5674 90.2412 40.5674V41.5674C90.9487 41.5674 91.5603 41.4709 92.0329 41.2346C92.5289 40.9866 92.8634 40.5861 92.9715 40.0455L91.991 39.8494ZM90.2412 40.5674C89.8513 40.5674 89.569 40.486 89.3643 40.3567C89.1636 40.2299 88.9997 40.0336 88.8833 39.7342L87.9512 40.0966C88.1335 40.5652 88.4229 40.9449 88.8303 41.2022C89.2335 41.4568 89.7139 41.5674 90.2412 41.5674V40.5674ZM88.8803 39.7268C88.6671 39.2035 88.5045 38.5345 88.4014 37.7094L87.4091 37.8334C87.5193 38.715 87.6981 39.4753 87.9542 40.1041L88.8803 39.7268ZM88.4016 37.7109C88.2951 36.8379 88.2078 36.2226 88.1395 35.8814L87.159 36.0775C87.2187 36.3762 87.3021 36.9556 87.4089 37.8319L88.4016 37.7109ZM87.2064 35.7473C85.8248 38.3829 84.5477 39.8528 83.4149 40.3542L83.8196 41.2686C85.2895 40.618 86.7003 38.8666 88.0921 36.2116L87.2064 35.7473ZM83.4115 40.3557C82.8267 40.6198 82.1313 40.7594 81.3132 40.7594V41.7594C82.2446 41.7594 83.0852 41.6003 83.823 41.2671L83.4115 40.3557ZM81.3132 40.7594C80.6368 40.7594 80.108 40.4562 79.6959 39.7574L78.8346 40.2654C79.4038 41.2307 80.2404 41.7594 81.3132 41.7594V40.7594ZM79.7034 39.7705C79.2932 39.0247 79.0612 37.886 79.0612 36.2994H78.0612C78.0612 37.9555 78.2986 39.2915 78.8271 40.2524L79.7034 39.7705ZM79.0612 36.2994C79.0612 34.7332 79.3188 33.086 79.84 31.3556L78.8825 31.0672C78.337 32.8782 78.0612 34.6229 78.0612 36.2994H79.0612ZM79.8405 31.354C80.3576 29.6164 81.107 28.1765 82.0797 27.0215L81.3148 26.3773C80.2395 27.6543 79.4315 29.2224 78.882 31.0688L79.8405 31.354ZM82.0825 27.0182C83.044 25.8563 84.0347 25.3434 85.0573 25.3434V24.3434C83.6478 24.3434 82.3985 25.0679 81.312 26.3806L82.0825 27.0182ZM85.0573 25.3434C85.8639 25.3434 86.4939 25.5105 86.9766 25.8116C87.4551 26.1101 87.8262 26.5634 88.0805 27.2039L89.01 26.8349C88.6883 26.0247 88.1901 25.39 87.5059 24.9632C86.826 24.539 85.9999 24.3434 85.0573 24.3434V25.3434ZM88.0805 27.2037C88.5398 28.362 88.7812 29.8828 88.7812 31.7874H89.7812C89.7812 29.8094 89.5321 28.1515 89.01 26.8351L88.0805 27.2037ZM80.9573 30.6379C80.6545 31.8057 80.4266 32.9228 80.2743 33.9887L81.2642 34.1301C81.4106 33.1054 81.6307 32.0251 81.9252 30.8889L80.9573 30.6379ZM80.2745 33.9873C80.1226 35.029 80.0452 35.9711 80.0452 36.8114H81.0452C81.0452 36.0304 81.1173 35.1379 81.264 34.1316L80.2745 33.9873ZM80.0452 36.8114C80.0452 37.6689 80.2195 38.4385 80.5882 39.1022L81.4623 38.6166C81.191 38.1283 81.0452 37.5326 81.0452 36.8114H80.0452ZM80.5951 39.1143C80.9999 39.7973 81.5807 40.2234 82.3372 40.2234V39.2234C82.0271 39.2234 81.7333 39.0735 81.4554 38.6045L80.5951 39.1143ZM82.3372 40.2234C83.0846 40.2234 83.7687 39.8673 84.3834 39.2644C84.9946 38.6649 85.5683 37.7932 86.1142 36.6795L85.2163 36.2393C84.6955 37.3017 84.1812 38.0619 83.6831 38.5504C83.1885 39.0356 82.742 39.2234 82.3372 39.2234V40.2234ZM86.1142 36.6795C87.205 34.4542 87.7653 32.3519 87.7653 30.3794H86.7653C86.7653 32.1616 86.2588 34.1126 85.2163 36.2393L86.1142 36.6795ZM87.7653 30.3794C87.7653 29.0722 87.4193 27.9516 86.6936 27.0565L85.9169 27.6863C86.4712 28.3699 86.7653 29.2546 86.7653 30.3794H87.7653ZM86.6894 27.0513C86.1617 26.4182 85.4521 26.1034 84.6093 26.1034V27.1034C85.1744 27.1034 85.5954 27.3007 85.9211 27.6915L86.6894 27.0513ZM84.6093 26.1034C83.6996 26.1034 82.9381 26.651 82.3137 27.5298L83.1288 28.109C83.6564 27.3665 84.1535 27.1034 84.6093 27.1034V26.1034ZM82.3122 27.5319C81.7149 28.3818 81.2667 29.4223 80.9567 30.6401L81.9258 30.8868C82.2132 29.7579 82.6182 28.8357 83.1303 28.1069L82.3122 27.5319ZM104.296 29.0034L104.65 29.357L104.887 29.1199L104.758 28.8105L104.296 29.0034ZM102.088 29.0994L101.668 29.371L101.678 29.3856L101.688 29.3994L102.088 29.0994ZM101.512 27.9474L101.04 28.1126L101.043 28.1203L101.512 27.9474ZM100.68 26.7954L100.337 27.1589L100.347 27.1687L100.358 27.1779L100.68 26.7954ZM99.2083 26.2514V25.7514H99.1827L99.1572 25.754L99.2083 26.2514ZM96.9362 28.0434L97.3598 28.3092L97.3621 28.3055L96.9362 28.0434ZM95.4323 31.6594L94.9463 31.5418L95.4323 31.6594ZM95.9122 38.4114L95.5121 38.7115L95.5208 38.7225L95.9122 38.4114ZM101.64 38.3154L102.02 38.6408L102.024 38.6355L101.64 38.3154ZM102.536 37.1634L102.138 36.8603L102.131 36.8707L102.536 37.1634ZM105.224 35.9794H105.724V35.6053L105.365 35.4997L105.224 35.9794ZM103.048 39.1154L103.382 39.4879L103.382 39.4876L103.048 39.1154ZM94.3763 39.4354L94.0013 39.7663L94.0083 39.7739L94.3763 39.4354ZM94.5362 28.6514L94.089 28.4278L94.0864 28.4331L94.5362 28.6514ZM96.7122 26.0274L97.0108 26.4286L97.0167 26.4241L96.7122 26.0274ZM102.504 26.1234L102.131 26.4556L102.135 26.4611L102.14 26.4664L102.504 26.1234ZM103.943 28.6499C103.592 29.0007 103.306 29.1114 103.08 29.1114V30.1114C103.665 30.1114 104.19 29.8168 104.65 29.357L103.943 28.6499ZM103.08 29.1114C102.842 29.1114 102.656 29.0226 102.488 28.7994L101.688 29.3994C102.033 29.8589 102.508 30.1114 103.08 30.1114V29.1114ZM102.508 28.8278C102.293 28.4961 102.118 28.1453 101.981 27.7746L101.043 28.1203C101.205 28.5602 101.414 28.9774 101.668 29.371L102.508 28.8278ZM101.984 27.7822C101.8 27.2574 101.464 26.8019 101.002 26.413L100.358 27.1779C100.707 27.4716 100.925 27.7841 101.04 28.1126L101.984 27.7822ZM101.024 26.4319C100.534 25.9699 99.9152 25.7514 99.2083 25.7514V26.7514C99.696 26.7514 100.058 26.8956 100.337 27.1589L101.024 26.4319ZM99.1572 25.754C98.1 25.8625 97.2284 26.6146 96.5104 27.7814L97.3621 28.3055C98.0094 27.2535 98.6525 26.811 99.2593 26.7488L99.1572 25.754ZM96.5127 27.7777C95.7997 28.914 95.2782 30.1699 94.9463 31.5418L95.9182 31.777C96.2263 30.5036 96.7075 29.3488 97.3598 28.3092L96.5127 27.7777ZM94.9463 31.5418C94.6184 32.897 94.4522 34.1848 94.4522 35.4034H95.4522C95.4522 34.2754 95.6061 33.0671 95.9182 31.777L94.9463 31.5418ZM94.4522 35.4034C94.4522 36.6544 94.802 37.7645 95.5123 38.7114L96.3122 38.1114C95.7425 37.3517 95.4522 36.4564 95.4522 35.4034H94.4522ZM95.5208 38.7225C96.2817 39.6798 97.3142 40.1594 98.5683 40.1594V39.1594C97.6036 39.1594 96.8654 38.807 96.3037 38.1003L95.5208 38.7225ZM98.5683 40.1594C99.9802 40.1594 101.148 39.6578 102.02 38.6408L101.261 37.99C100.596 38.765 99.7163 39.1594 98.5683 39.1594V40.1594ZM102.024 38.6355C102.351 38.2431 102.657 37.85 102.942 37.4562L102.131 36.8707C101.861 37.2448 101.569 37.6197 101.256 37.9953L102.024 38.6355ZM102.934 37.4664C103.258 37.0407 103.55 36.7456 103.806 36.5604C104.061 36.3754 104.253 36.3194 104.392 36.3194V35.3194C103.976 35.3194 103.582 35.4874 103.219 35.7504C102.856 36.0132 102.497 36.3901 102.139 36.8604L102.934 37.4664ZM104.392 36.3194C104.51 36.3194 104.731 36.3555 105.083 36.4591L105.365 35.4997C104.992 35.39 104.658 35.3194 104.392 35.3194V36.3194ZM104.724 35.9794C104.724 36.2271 104.607 36.5845 104.269 37.0704C103.937 37.549 103.424 38.1064 102.714 38.7432L103.382 39.4876C104.123 38.8232 104.698 38.2072 105.091 37.6405C105.479 37.081 105.724 36.5211 105.724 35.9794H104.724ZM102.715 38.7429C101.363 39.953 99.9214 40.5354 98.3763 40.5354V41.5354C100.202 41.5354 101.874 40.8378 103.382 39.4879L102.715 38.7429ZM98.3763 40.5354C96.8058 40.5354 95.6152 40.0436 94.7442 39.0969L94.0083 39.7739C95.1 40.9605 96.576 41.5354 98.3763 41.5354V40.5354ZM94.7512 39.1046C93.8856 38.1236 93.4362 36.851 93.4362 35.2434H92.4362C92.4362 37.0492 92.9469 38.5712 94.0013 39.7662L94.7512 39.1046ZM93.4362 35.2434C93.4362 33.1298 93.9487 31.0067 94.9861 28.8698L94.0864 28.4331C92.9905 30.6908 92.4362 32.9623 92.4362 35.2434H93.4362ZM94.9835 28.875C95.4834 27.8752 96.1589 27.0625 97.0108 26.4285L96.4137 25.6263C95.4309 26.3577 94.6558 27.2943 94.089 28.4278L94.9835 28.875ZM97.0167 26.4241C97.8488 25.7854 98.7663 25.4714 99.7842 25.4714V24.4714C98.5408 24.4714 97.4104 24.8614 96.4078 25.6308L97.0167 26.4241ZM99.7842 25.4714C100.788 25.4714 101.553 25.8058 102.131 26.4556L102.878 25.7912C102.09 24.9051 101.042 24.4714 99.7842 24.4714V25.4714ZM102.14 26.4664C102.795 27.1603 103.362 28.0657 103.835 29.1963L104.758 28.8105C104.249 27.5945 103.622 26.5799 102.868 25.7804L102.14 26.4664ZM105.906 26.8914H105.406V27.054L105.501 27.1855L105.906 26.8914ZM106.322 26.0914L106.051 25.6708L106.044 25.6755L106.037 25.6803L106.322 26.0914ZM107.282 25.7394L107.344 26.2356L107.359 26.2337L107.374 26.2309L107.282 25.7394ZM108.946 25.5794L108.973 26.0786L109.396 26.0552L109.442 25.6346L108.946 25.5794ZM109.042 23.3714L108.542 23.3598V23.3714H109.042ZM109.105 21.0354L108.606 21.0164L108.606 21.0188L109.105 21.0354ZM109.873 17.9314L110.199 18.3111L110.206 18.3051L109.873 17.9314ZM111.09 17.7394L111.589 17.7186L111.574 17.345L111.211 17.2543L111.09 17.7394ZM111.186 20.5234L111.685 20.5434L111.686 20.5334V20.5234H111.186ZM110.993 25.3234L110.494 25.3034L110.481 25.6262L110.77 25.7706L110.993 25.3234ZM111.345 25.3554V25.8554H111.356L111.366 25.855L111.345 25.3554ZM113.649 25.2594V24.7594H113.639L113.629 24.7599L113.649 25.2594ZM115.249 27.3074L115.145 26.8185L115.137 26.8202L115.249 27.3074ZM112.817 27.2754L112.726 27.7671L112.737 27.7689L112.747 27.7704L112.817 27.2754ZM111.058 27.1474L110.936 26.6623L110.596 26.7473L110.56 27.096L111.058 27.1474ZM110.993 31.2754L110.493 31.287L110.494 31.2992L110.993 31.2754ZM111.249 34.5074L110.752 34.558L110.753 34.5663L111.249 34.5074ZM112.177 37.7714L111.732 37.9992L111.735 38.0034L112.177 37.7714ZM115.249 38.6994L115.496 39.1347L115.503 39.1307L115.509 39.1265L115.249 38.6994ZM117.074 38.4434L116.796 38.8594L116.822 38.8767L116.85 38.8906L117.074 38.4434ZM116.018 40.1394L116.224 40.595L116.228 40.5928L116.018 40.1394ZM109.329 34.0914L109.825 34.0271L109.825 34.0253L109.329 34.0914ZM108.946 27.4994L109.445 27.4857L109.429 26.9L108.853 27.008L108.946 27.4994ZM107.857 27.0954C106.953 27.0954 106.509 26.8712 106.31 26.5973L105.501 27.1855C105.985 27.8503 106.842 28.0954 107.857 28.0954V27.0954ZM106.406 26.8914C106.406 26.7118 106.466 26.5998 106.606 26.5025L106.037 25.6803C105.623 25.967 105.406 26.3884 105.406 26.8914H106.406ZM106.592 26.512C106.83 26.3591 107.079 26.2686 107.344 26.2356L107.219 25.2433C106.801 25.2955 106.411 25.4397 106.051 25.6708L106.592 26.512ZM107.374 26.2309C107.681 26.1733 108.207 26.1212 108.973 26.0786L108.918 25.0802C108.148 25.123 107.565 25.1775 107.189 25.248L107.374 26.2309ZM109.442 25.6346C109.509 25.0333 109.542 24.2771 109.542 23.3714H108.542C108.542 24.2578 108.51 24.9736 108.449 25.5242L109.442 25.6346ZM109.541 23.383C109.563 22.4667 109.584 21.6899 109.605 21.0521L108.606 21.0188C108.584 21.661 108.563 22.4414 108.542 23.3598L109.541 23.383ZM109.605 21.0544C109.636 20.2286 109.714 19.5864 109.831 19.1155C109.951 18.6281 110.096 18.3996 110.199 18.311L109.548 17.5518C109.203 17.8473 108.996 18.3281 108.86 18.8753C108.721 19.4391 108.639 20.1569 108.606 21.0164L109.605 21.0544ZM110.206 18.3051C110.326 18.1984 110.415 18.1754 110.481 18.1754V17.1754C110.122 17.1754 109.805 17.3231 109.541 17.5577L110.206 18.3051ZM110.481 18.1754C110.688 18.1754 110.848 18.1944 110.968 18.2245L111.211 17.2543C110.99 17.1991 110.744 17.1754 110.481 17.1754V18.1754ZM110.59 17.7602C110.654 19.3014 110.686 20.2165 110.686 20.5234H111.686C111.686 20.1904 111.653 19.2495 111.589 17.7186L110.59 17.7602ZM110.686 20.5034L110.494 25.3034L111.493 25.3434L111.685 20.5434L110.686 20.5034ZM110.77 25.7706C110.885 25.8282 111.013 25.8403 111.068 25.8454C111.148 25.8526 111.243 25.8554 111.345 25.8554V24.8554C111.257 24.8554 111.196 24.8529 111.159 24.8495C111.14 24.8478 111.134 24.8465 111.138 24.8471C111.14 24.8475 111.147 24.8491 111.159 24.8526C111.169 24.8558 111.19 24.8629 111.217 24.8762L110.77 25.7706ZM111.366 25.855L113.67 25.759L113.629 24.7599L111.325 24.8559L111.366 25.855ZM113.649 25.7594C114.468 25.7594 115.032 25.8238 115.374 25.9293C115.749 26.0445 115.646 26.1268 115.646 26.0274H116.646C116.646 25.416 116.126 25.1143 115.669 24.9735C115.179 24.823 114.495 24.7594 113.649 24.7594V25.7594ZM115.646 26.0274C115.646 26.3266 115.583 26.5026 115.512 26.6047C115.447 26.6969 115.343 26.7761 115.145 26.8185L115.354 27.7963C115.754 27.7107 116.097 27.5126 116.331 27.1781C116.558 26.8536 116.646 26.4536 116.646 26.0274H115.646ZM115.137 26.8202C114.907 26.8733 114.616 26.9034 114.257 26.9034V27.9034C114.667 27.9034 115.037 27.8695 115.362 27.7946L115.137 26.8202ZM114.257 26.9034C113.929 26.9034 113.475 26.8643 112.888 26.7804L112.747 27.7704C113.354 27.8572 113.861 27.9034 114.257 27.9034V26.9034ZM112.909 26.7838C112.331 26.6768 111.875 26.6154 111.57 26.6154V27.6154C111.776 27.6154 112.152 27.6607 112.726 27.7671L112.909 26.7838ZM111.57 26.6154C111.323 26.6154 111.091 26.6237 110.936 26.6623L111.179 27.6325C111.176 27.6332 111.203 27.6273 111.281 27.6224C111.352 27.618 111.447 27.6154 111.57 27.6154V26.6154ZM110.56 27.096C110.494 27.7316 110.462 28.3675 110.462 29.0034H111.462C111.462 28.402 111.493 27.8005 111.555 27.1989L110.56 27.096ZM110.462 29.0034C110.462 29.6061 110.472 30.3676 110.494 31.287L111.493 31.2638C111.472 30.3485 111.462 29.5954 111.462 29.0034H110.462ZM110.494 31.2992C110.537 32.2069 110.623 33.2937 110.752 34.558L111.747 34.4568C111.62 33.2038 111.535 32.1359 111.493 31.2516L110.494 31.2992ZM110.753 34.5663C110.908 35.8708 111.231 37.0185 111.732 37.9992L112.623 37.5437C112.186 36.6897 111.89 35.6614 111.746 34.4485L110.753 34.5663ZM111.735 38.0034C112.251 38.9901 112.987 39.6154 113.969 39.6154V38.6154C113.501 38.6154 113.042 38.3448 112.62 37.5394L111.735 38.0034ZM113.969 39.6154C114.453 39.6154 114.968 39.433 115.496 39.1347L115.003 38.2641C114.55 38.5205 114.211 38.6154 113.969 38.6154V39.6154ZM115.509 39.1265C115.997 38.8297 116.265 38.7514 116.369 38.7514V37.7514C115.962 37.7514 115.483 37.9718 114.99 38.2723L115.509 39.1265ZM116.369 38.7514C116.568 38.7514 116.702 38.7964 116.796 38.8594L117.351 38.0274C117.061 37.8344 116.725 37.7514 116.369 37.7514V38.7514ZM116.85 38.8906C116.883 38.9071 116.905 38.9209 116.918 38.9306C116.931 38.9404 116.933 38.944 116.929 38.9395C116.925 38.9345 116.915 38.9211 116.907 38.8989C116.898 38.876 116.894 38.8511 116.894 38.8274H117.894C117.894 38.391 117.57 38.1326 117.297 37.9962L116.85 38.8906ZM116.894 38.8274C116.894 38.8661 116.877 38.9654 116.704 39.1295C116.531 39.295 116.242 39.4837 115.807 39.6861L116.228 40.5928C116.711 40.3685 117.109 40.1251 117.395 39.8533C117.681 39.5801 117.894 39.2368 117.894 38.8274H116.894ZM115.811 39.6839C114.949 40.0741 114.255 40.2474 113.714 40.2474V41.2474C114.452 41.2474 115.294 41.0154 116.224 40.595L115.811 39.6839ZM113.714 40.2474C112.733 40.2474 111.928 39.799 111.275 38.8084C110.605 37.7917 110.109 36.2154 109.825 34.0271L108.834 34.1558C109.126 36.4048 109.648 38.1565 110.44 39.3584C111.249 40.5865 112.348 41.2474 113.714 41.2474V40.2474ZM109.825 34.0253C109.658 32.7741 109.531 30.6004 109.445 27.4857L108.446 27.5131C108.531 30.6278 108.659 32.8487 108.834 34.1575L109.825 34.0253ZM108.853 27.008C108.545 27.0657 108.214 27.0954 107.857 27.0954V28.0954C108.269 28.0954 108.663 28.0611 109.038 27.9909L108.853 27.008ZM126.705 34.3794L126.205 34.3694V34.3794H126.705ZM126.993 20.0434L127.493 20.0535V20.0434H126.993ZM126.801 17.7714L126.469 17.3977L126.227 17.613L126.324 17.922L126.801 17.7714ZM128.561 17.2594L129.056 17.19L128.996 16.7594H128.561V17.2594ZM128.753 33.4834L128.254 33.4587L129.245 33.5747L128.753 33.4834ZM136.241 26.8594L135.794 27.0831L135.8 27.0947L136.241 26.8594ZM137.201 30.3794L136.703 30.4254V30.4254L137.201 30.3794ZM137.521 34.5394L137.022 34.5701L137.022 34.5714L137.521 34.5394ZM139.921 39.3394L139.777 38.8605L139.77 38.8627L139.763 38.8651L139.921 39.3394ZM141.361 39.1474H141.861V38.9664L141.745 38.8273L141.361 39.1474ZM140.369 40.0434L140.598 40.4879L140.609 40.4818L140.369 40.0434ZM136.369 39.1154L135.922 39.3391L135.928 39.3507L136.369 39.1154ZM135.441 35.5634L134.942 35.6018L134.943 35.6094L135.441 35.5634ZM135.185 31.4354L134.685 31.4508L134.686 31.4588L135.185 31.4354ZM134.769 27.9154L134.283 28.0317L134.283 28.0341L134.769 27.9154ZM131.697 28.6834L131.23 28.5035L131.229 28.5071L131.697 28.6834ZM129.201 38.5074L128.724 38.3575L128.723 38.3618L129.201 38.5074ZM127.205 34.3895L127.493 20.0535L126.493 20.0334L126.205 34.3694L127.205 34.3895ZM127.493 20.0434C127.493 18.9396 127.432 18.1092 127.278 17.6209L126.324 17.922C126.426 18.2443 126.493 18.9286 126.493 20.0434H127.493ZM127.133 18.1451C127.387 17.9191 127.831 17.7594 128.561 17.7594V16.7594C127.712 16.7594 126.983 16.9411 126.469 17.3977L127.133 18.1451ZM128.066 17.3288C128.381 19.5796 128.541 22.4874 128.541 26.0594H129.541C129.541 22.4634 129.381 19.5046 129.056 17.19L128.066 17.3288ZM128.541 26.0594C128.541 27.1111 128.446 29.5722 128.254 33.4587L129.252 33.5081C129.444 29.6293 129.541 27.141 129.541 26.0594H128.541ZM129.245 33.5747C129.741 30.9026 130.424 28.9553 131.266 27.688C132.096 26.4379 133.049 25.8874 134.129 25.8874V24.8874C132.628 24.8874 131.394 25.6863 130.432 27.1348C129.482 28.5662 128.768 30.6669 128.261 33.3921L129.245 33.5747ZM134.129 25.8874C134.493 25.8874 134.797 25.9829 135.059 26.1656C135.326 26.3517 135.576 26.6467 135.794 27.083L136.688 26.6358C136.416 26.0908 136.068 25.6498 135.631 25.3452C135.189 25.0373 134.682 24.8874 134.129 24.8874V25.8874ZM135.8 27.0947C136.273 27.9821 136.58 29.0872 136.703 30.4254L137.699 30.3335C137.566 28.8983 137.233 27.6568 136.682 26.6241L135.8 27.0947ZM136.703 30.4254C136.831 31.807 136.937 33.1886 137.022 34.5701L138.02 34.5087C137.934 33.1169 137.827 31.7252 137.699 30.3335L136.703 30.4254ZM137.022 34.5714C137.13 36.2486 137.336 37.553 137.658 38.4524C137.966 39.3101 138.473 40.0314 139.313 40.0314V39.0314C139.171 39.0314 138.889 38.9207 138.6 38.1145C138.325 37.3498 138.126 36.1583 138.02 34.5074L137.022 34.5714ZM139.313 40.0314C139.362 40.0314 139.401 40.024 139.409 40.0226C139.424 40.0198 139.437 40.0168 139.446 40.0146C139.465 40.0102 139.484 40.005 139.5 40.0002C139.535 39.9903 139.579 39.9767 139.632 39.9602C139.737 39.927 139.886 39.878 140.079 39.8138L139.763 38.8651C139.572 38.9288 139.428 38.9758 139.33 39.0066C139.281 39.0222 139.247 39.0325 139.226 39.0387C139.214 39.0418 139.211 39.0426 139.213 39.0422C139.213 39.0421 139.22 39.0405 139.23 39.0387C139.232 39.0384 139.267 39.0314 139.313 39.0314V40.0314ZM140.065 39.8183C140.483 39.6928 140.787 39.6218 140.987 39.595C141.089 39.5814 141.141 39.5827 141.157 39.5845C141.192 39.5883 141.077 39.5881 140.977 39.4675L141.745 38.8273C141.591 38.6427 141.376 38.6025 141.265 38.5904C141.135 38.5761 140.993 38.5854 140.855 38.6038C140.575 38.6411 140.212 38.7301 139.777 38.8605L140.065 39.8183ZM140.861 39.1474C140.861 39.0391 140.924 39.0448 140.778 39.1764C140.654 39.2878 140.445 39.4314 140.129 39.605L140.609 40.4818C140.954 40.2928 141.241 40.1057 141.448 39.9185C141.633 39.7514 141.861 39.4904 141.861 39.1474H140.861ZM140.14 39.5991C139.526 39.9158 138.997 40.0554 138.545 40.0554V41.0554C139.202 41.0554 139.889 40.8537 140.598 40.4877L140.14 39.5991ZM138.545 40.0554C137.824 40.0554 137.252 39.7086 136.81 38.8801L135.928 39.3507C136.51 40.4422 137.389 41.0554 138.545 41.0554V40.0554ZM136.816 38.8918C136.36 37.9788 136.063 36.8582 135.939 35.5175L134.943 35.6094C135.075 37.0419 135.397 38.2894 135.922 39.339L136.816 38.8918ZM135.94 35.5251C135.833 34.1433 135.748 32.7723 135.684 31.412L134.686 31.4588C134.75 32.8292 134.835 34.2102 134.942 35.6018L135.94 35.5251ZM135.685 31.42C135.641 30.0113 135.5 28.8011 135.255 27.7967L134.283 28.0341C134.507 28.9498 134.643 30.0862 134.685 31.4508L135.685 31.42ZM135.255 27.7991C135.13 27.275 134.95 26.8256 134.687 26.498C134.409 26.1527 134.035 25.9434 133.585 25.9434V26.9434C133.689 26.9434 133.79 26.9794 133.907 27.1248C134.039 27.2879 134.173 27.5745 134.283 28.0317L135.255 27.7991ZM133.585 25.9434C133.041 25.9434 132.586 26.2453 132.219 26.6812C131.853 27.1154 131.527 27.7337 131.23 28.5035L132.163 28.8634C132.443 28.1398 132.72 27.6381 132.983 27.3257C133.245 27.0148 133.446 26.9434 133.585 26.9434V25.9434ZM131.229 28.5071C130.662 30.0118 130.217 31.674 129.893 33.4915L130.877 33.6673C131.193 31.9009 131.623 30.299 132.165 28.8597L131.229 28.5071ZM129.893 33.4915C129.576 35.2658 129.186 36.8875 128.724 38.3575L129.678 38.6573C130.155 37.1407 130.554 35.477 130.877 33.6673L129.893 33.4915ZM128.723 38.3618C128.503 39.0829 128.292 39.5861 128.097 39.899C127.883 40.2416 127.781 40.2154 127.825 40.2154V41.2154C128.338 41.2154 128.7 40.8213 128.945 40.4279C129.209 40.0047 129.451 39.4039 129.679 38.653L128.723 38.3618ZM127.825 40.2154C127.918 40.2154 127.886 40.2912 127.777 40.0852C127.673 39.8902 127.568 39.5549 127.477 39.0444C127.299 38.0329 127.205 36.4845 127.205 34.3794H126.205C126.205 36.4983 126.298 38.1179 126.493 39.2185C126.589 39.7639 126.717 40.2206 126.893 40.5537C127.064 40.8757 127.358 41.2154 127.825 41.2154V40.2154ZM143.77 34.5074L143.847 34.0134L143.325 33.9318L143.272 34.4577L143.77 34.5074ZM144.858 38.3474L144.52 38.716L144.525 38.7206L144.858 38.3474ZM150.234 38.9554L150.034 38.4973L150.028 38.4997L150.234 38.9554ZM151.706 37.9954L152.082 38.3247L152.09 38.3164L152.096 38.3078L151.706 37.9954ZM154.65 36.7474L155.14 36.8474L155.223 36.4383L154.836 36.2832L154.65 36.7474ZM152.218 39.6274L152.48 40.0533L152.482 40.0521L152.218 39.6274ZM143.098 39.4994L142.763 39.8711L142.771 39.878L143.098 39.4994ZM142.458 30.8274L141.998 30.632L141.996 30.6351L142.458 30.8274ZM145.274 26.8594L145.607 27.232L145.608 27.2317L145.274 26.8594ZM152.09 25.9954L151.805 26.4061L151.811 26.4106L151.818 26.4149L152.09 25.9954ZM150.778 32.8754L151.072 33.2798L151.073 33.2791L150.778 32.8754ZM148.89 32.4914L149.205 32.8798L148.89 32.4914ZM150.554 30.4754L150.104 30.2572L150.099 30.2685L150.554 30.4754ZM150.394 27.0514L150.04 27.4051L150.049 27.4135L150.394 27.0514ZM145.85 28.5874L145.426 28.323L145.423 28.3274L145.85 28.5874ZM143.93 33.1634L143.444 33.0452L143.322 33.5493L143.83 33.6533L143.93 33.1634ZM143.272 34.4577C143.23 34.881 143.206 35.1933 143.206 35.3714H144.206C144.206 35.2509 144.225 34.9872 144.268 34.5572L143.272 34.4577ZM143.206 35.3714C143.206 36.7571 143.626 37.8962 144.52 38.716L145.196 37.9788C144.554 37.3906 144.206 36.5458 144.206 35.3714H143.206ZM144.525 38.7206C145.407 39.507 146.454 39.9034 147.642 39.9034V38.9034C146.697 38.9034 145.888 38.5958 145.191 37.9743L144.525 38.7206ZM147.642 39.9034C148.749 39.9034 149.691 39.7494 150.44 39.4111L150.028 38.4997C149.455 38.7588 148.668 38.9034 147.642 38.9034V39.9034ZM150.434 39.4135C151.146 39.102 151.714 38.7459 152.082 38.3247L151.33 37.6662C151.101 37.9276 150.687 38.2115 150.034 38.4973L150.434 39.4135ZM152.096 38.3078C152.85 37.3663 153.423 37.0554 153.818 37.0554V36.0554C152.933 36.0554 152.098 36.7046 151.316 37.6831L152.096 38.3078ZM153.818 37.0554C153.967 37.0554 154.178 37.0972 154.464 37.2117L154.836 36.2832C154.482 36.1416 154.139 36.0554 153.818 36.0554V37.0554ZM154.16 36.6474C153.986 37.4991 153.309 38.3611 151.954 39.2027L152.482 40.0521C153.943 39.1444 154.887 38.0865 155.14 36.8474L154.16 36.6474ZM151.956 39.2016C150.668 39.994 149.016 40.4074 146.97 40.4074V41.4074C149.148 41.4074 150.994 40.9675 152.48 40.0532L151.956 39.2016ZM146.97 40.4074C145.591 40.4074 144.418 39.9779 143.425 39.1208L142.771 39.878C143.954 40.8983 145.362 41.4074 146.97 41.4074V40.4074ZM143.432 39.1278C142.487 38.2768 141.998 37.119 141.998 35.5954H140.998C140.998 37.3572 141.576 38.8021 142.764 39.8711L143.432 39.1278ZM141.998 35.5954C141.998 34.0196 142.305 32.4956 142.92 31.0197L141.996 30.6351C141.331 32.2312 140.998 33.8859 140.998 35.5954H141.998ZM142.918 31.0229C143.552 29.5306 144.448 28.2692 145.607 27.232L144.941 26.4868C143.668 27.6256 142.687 29.0095 141.998 30.632L142.918 31.0229ZM145.608 27.2317C146.783 26.1777 147.918 25.6954 149.018 25.6954V24.6954C147.601 24.6954 146.239 25.3224 144.94 26.4871L145.608 27.2317ZM149.018 25.6954C150.233 25.6954 151.146 25.9488 151.805 26.4061L152.375 25.5847C151.498 24.9753 150.363 24.6954 149.018 24.6954V25.6954ZM151.818 26.4149C152.454 26.8277 152.774 27.4208 152.774 28.2674H153.774C153.774 27.1087 153.304 26.1871 152.362 25.5759L151.818 26.4149ZM152.774 28.2674C152.774 29.9445 152.035 31.3378 150.483 32.4717L151.073 33.2791C152.849 31.981 153.774 30.3023 153.774 28.2674H152.774ZM150.484 32.4711C148.918 33.6097 147.27 34.1674 145.53 34.1674V35.1674C147.502 35.1674 149.352 34.5304 151.072 33.2798L150.484 32.4711ZM145.53 34.1674C145.073 34.1674 144.514 34.1176 143.847 34.0134L143.693 35.0014C144.392 35.1106 145.005 35.1674 145.53 35.1674V34.1674ZM146.202 33.9514C147.321 33.9514 148.328 33.5909 149.205 32.8798L148.575 32.103C147.874 32.6719 147.088 32.9514 146.202 32.9514V33.9514ZM149.205 32.8798C150.036 32.2057 150.649 31.4754 151.009 30.6823L150.099 30.2685C149.819 30.8834 149.322 31.4971 148.575 32.103L149.205 32.8798ZM151.004 30.6936C151.367 29.9447 151.566 29.229 151.566 28.5554H150.566C150.566 29.0338 150.424 29.5982 150.104 30.2573L151.004 30.6936ZM151.566 28.5554C151.566 27.8317 151.278 27.2026 150.739 26.6893L150.049 27.4135C150.406 27.7536 150.566 28.1272 150.566 28.5554H151.566ZM150.748 26.6979C150.212 26.1624 149.565 25.8794 148.826 25.8794V26.8794C149.282 26.8794 149.68 27.0444 150.04 27.405L150.748 26.6979ZM148.826 25.8794C147.499 25.8794 146.375 26.7994 145.426 28.323L146.274 28.8519C147.16 27.4314 148.02 26.8794 148.826 26.8794V25.8794ZM145.423 28.3274C144.502 29.8407 143.841 31.4136 143.444 33.0452L144.416 33.2816C144.787 31.7559 145.406 30.2781 146.277 28.8474L145.423 28.3274ZM143.83 33.6533C144.783 33.8482 145.578 33.9514 146.202 33.9514V32.9514C145.674 32.9514 144.954 32.8626 144.03 32.6736L143.83 33.6533ZM160.399 37.8674H159.899V37.8806L159.9 37.8937L160.399 37.8674ZM160.495 39.6914H160.995V39.6783L160.994 39.6651L160.495 39.6914ZM160.079 40.6834L160.356 41.0995L160.364 41.0945L160.079 40.6834ZM158.479 40.8114L157.988 40.9046L158.044 41.2007L158.332 41.2893L158.479 40.8114ZM157.391 31.5634L156.892 31.5951L156.892 31.598L157.391 31.5634ZM156.975 25.2914L156.634 24.9259L156.456 25.0921L156.477 25.3347L156.975 25.2914ZM158.927 24.9714L159.422 24.9031L159.379 24.5873L159.074 24.4935L158.927 24.9714ZM159.119 29.0674L159.619 29.0573L159.119 29.0674ZM159.279 33.0354L158.783 33.095L159.772 33.1176L159.279 33.0354ZM160.879 28.0114L161.327 28.2326L161.328 28.2306L160.879 28.0114ZM162.543 25.9314L162.843 26.3314L162.845 26.33L162.543 25.9314ZM166.991 26.2194L166.622 26.5563L166.627 26.562L166.632 26.5675L166.991 26.2194ZM167.631 28.6514L167.823 29.113L167.839 29.1063L167.855 29.0986L167.631 28.6514ZM166.063 28.4594L166.467 28.1653V28.1653L166.063 28.4594ZM165.711 27.6914L165.222 27.7962L165.224 27.8038L165.711 27.6914ZM165.295 26.8914L164.925 27.2278V27.2278L165.295 26.8914ZM161.967 29.1314L162.43 29.3191L162.432 29.3151L161.967 29.1314ZM159.9 37.8937L159.996 39.7177L160.994 39.6651L160.898 37.8411L159.9 37.8937ZM159.995 39.6914C159.995 40.0662 159.888 40.2073 159.794 40.2723L160.364 41.0945C160.824 40.7755 160.995 40.2553 160.995 39.6914H159.995ZM159.802 40.2674C159.618 40.3895 159.447 40.4394 159.279 40.4394V41.4394C159.666 41.4394 160.028 41.3186 160.356 41.0994L159.802 40.2674ZM159.279 40.4394C159.079 40.4394 158.862 40.4061 158.626 40.3335L158.332 41.2893C158.651 41.3874 158.967 41.4394 159.279 41.4394V40.4394ZM158.97 40.7183C158.506 38.2696 158.145 35.208 157.89 31.5288L156.892 31.598C157.149 35.3001 157.513 38.4039 157.988 40.9046L158.97 40.7183ZM157.89 31.5317C157.656 27.8453 157.516 25.7463 157.473 25.2481L156.477 25.3347C156.519 25.8179 156.657 27.9002 156.892 31.5951L157.89 31.5317ZM157.316 25.6569C157.571 25.4194 157.785 25.3434 157.967 25.3434V24.3434C157.466 24.3434 157.019 24.5661 156.634 24.9259L157.316 25.6569ZM157.967 25.3434C158.292 25.3434 158.56 25.3818 158.78 25.4493L159.074 24.4935C158.739 24.3904 158.368 24.3434 157.967 24.3434V25.3434ZM158.432 25.0397C158.512 25.6238 158.576 26.958 158.619 29.0775L159.619 29.0573C159.576 26.9528 159.512 25.5564 159.422 24.9031L158.432 25.0397ZM158.619 29.0775C158.662 31.1805 158.715 32.5315 158.783 33.095L159.775 32.9758C159.715 32.4727 159.662 31.1783 159.619 29.0573L158.619 29.0775ZM159.772 33.1176C160.063 31.3716 160.582 29.744 161.327 28.2326L160.431 27.7903C159.64 29.3935 159.092 31.1152 158.786 32.9532L159.772 33.1176ZM161.328 28.2306C161.725 27.4171 162.232 26.7896 162.843 26.3314L162.243 25.5314C161.489 26.0973 160.886 26.8564 160.43 27.7922L161.328 28.2306ZM162.845 26.33C163.473 25.8542 164.116 25.6314 164.783 25.6314V24.6314C163.872 24.6314 163.021 24.9419 162.241 25.5329L162.845 26.33ZM164.783 25.6314C165.424 25.6314 166.033 25.9111 166.622 26.5563L167.36 25.8825C166.626 25.077 165.763 24.6314 164.783 24.6314V25.6314ZM166.632 26.5675C167.284 27.2393 167.515 27.7589 167.515 28.1394H168.515C168.515 27.3679 168.064 26.6075 167.35 25.8713L166.632 26.5675ZM167.515 28.1394C167.515 28.1419 167.515 28.139 167.517 28.1333C167.519 28.1276 167.521 28.1254 167.519 28.1274C167.515 28.1332 167.489 28.1636 167.407 28.2042L167.855 29.0986C168.212 28.9197 168.515 28.6074 168.515 28.1394H167.515ZM167.439 28.1899C167.252 28.2676 167.031 28.3114 166.767 28.3114V29.3114C167.143 29.3114 167.498 29.2486 167.823 29.113L167.439 28.1899ZM166.767 28.3114C166.623 28.3114 166.541 28.2662 166.467 28.1653L165.659 28.7535C165.927 29.122 166.314 29.3114 166.767 29.3114V28.3114ZM166.467 28.1653C166.335 27.9839 166.247 27.7895 166.198 27.579L165.224 27.8038C165.303 28.148 165.449 28.4656 165.659 28.7535L166.467 28.1653ZM166.2 27.5867C166.117 27.1983 165.935 26.8525 165.665 26.5551L164.925 27.2278C165.081 27.3997 165.177 27.5872 165.222 27.7962L166.2 27.5867ZM165.665 26.5551C165.343 26.2007 164.912 26.0394 164.431 26.0394V27.0394C164.675 27.0394 164.82 27.1128 164.925 27.2278L165.665 26.5551ZM164.431 26.0394C163.782 26.0394 163.213 26.3372 162.733 26.8429C162.26 27.34 161.855 28.0537 161.502 28.9477L162.432 29.3151C162.762 28.4811 163.109 27.8988 163.457 27.5319C163.798 27.1736 164.12 27.0394 164.431 27.0394V26.0394ZM161.504 28.9437C160.43 31.5937 159.899 34.5709 159.899 37.8674H160.899C160.899 34.6787 161.413 31.8318 162.43 29.3191L161.504 28.9437ZM171.114 34.5074L171.191 34.0134L170.669 33.9318L170.616 34.4577L171.114 34.5074ZM172.202 38.3474L171.864 38.716L171.869 38.7206L172.202 38.3474ZM177.578 38.9554L177.377 38.4973L177.372 38.4997L177.578 38.9554ZM179.05 37.9954L179.426 38.3247L179.433 38.3164L179.44 38.3078L179.05 37.9954ZM181.994 36.7474L182.484 36.8474L182.567 36.4383L182.179 36.2832L181.994 36.7474ZM179.562 39.6274L179.824 40.0533L179.826 40.0521L179.562 39.6274ZM170.442 39.4994L170.107 39.8711L170.115 39.878L170.442 39.4994ZM169.802 30.8274L169.342 30.632L169.34 30.6351L169.802 30.8274ZM172.618 26.8594L172.951 27.232L172.952 27.2317L172.618 26.8594ZM179.434 25.9954L179.149 26.4061L179.155 26.4106L179.162 26.4149L179.434 25.9954ZM178.122 32.8754L178.416 33.2798L178.417 33.2791L178.122 32.8754ZM176.234 32.4914L176.549 32.8798L176.234 32.4914ZM177.898 30.4754L177.448 30.2572L177.443 30.2685L177.898 30.4754ZM177.738 27.0514L177.384 27.4051L177.393 27.4135L177.738 27.0514ZM173.194 28.5874L172.769 28.323L172.767 28.3274L173.194 28.5874ZM171.274 33.1634L170.788 33.0452L170.665 33.5493L171.174 33.6533L171.274 33.1634ZM170.616 34.4577C170.574 34.881 170.55 35.1933 170.55 35.3714H171.55C171.55 35.2509 171.568 34.9872 171.611 34.5572L170.616 34.4577ZM170.55 35.3714C170.55 36.7571 170.97 37.8962 171.864 38.716L172.54 37.9788C171.898 37.3906 171.55 36.5458 171.55 35.3714H170.55ZM171.869 38.7206C172.751 39.507 173.797 39.9034 174.986 39.9034V38.9034C174.041 38.9034 173.231 38.5958 172.535 37.9743L171.869 38.7206ZM174.986 39.9034C176.093 39.9034 177.035 39.7494 177.784 39.4111L177.372 38.4997C176.798 38.7588 176.012 38.9034 174.986 38.9034V39.9034ZM177.778 39.4135C178.49 39.102 179.057 38.7459 179.426 38.3247L178.673 37.6662C178.445 37.9276 178.031 38.2115 177.377 38.4973L177.778 39.4135ZM179.44 38.3078C180.193 37.3663 180.767 37.0554 181.162 37.0554V36.0554C180.276 36.0554 179.442 36.7046 178.659 37.6831L179.44 38.3078ZM181.162 37.0554C181.31 37.0554 181.522 37.0972 181.808 37.2117L182.179 36.2832C181.826 36.1416 181.482 36.0554 181.162 36.0554V37.0554ZM181.504 36.6474C181.33 37.4991 180.653 38.3611 179.298 39.2027L179.826 40.0521C181.287 39.1444 182.231 38.0865 182.484 36.8474L181.504 36.6474ZM179.3 39.2016C178.012 39.994 176.36 40.4074 174.314 40.4074V41.4074C176.491 41.4074 178.338 40.9675 179.824 40.0532L179.3 39.2016ZM174.314 40.4074C172.935 40.4074 171.762 39.9779 170.768 39.1208L170.115 39.878C171.298 40.8983 172.706 41.4074 174.314 41.4074V40.4074ZM170.776 39.1278C169.831 38.2768 169.342 37.119 169.342 35.5954H168.342C168.342 37.3572 168.92 38.8021 170.107 39.8711L170.776 39.1278ZM169.342 35.5954C169.342 34.0196 169.648 32.4956 170.263 31.0197L169.34 30.6351C168.675 32.2312 168.342 33.8859 168.342 35.5954H169.342ZM170.262 31.0229C170.896 29.5306 171.792 28.2692 172.951 27.232L172.284 26.4868C171.012 27.6256 170.031 29.0095 169.342 30.632L170.262 31.0229ZM172.952 27.2317C174.127 26.1777 175.261 25.6954 176.362 25.6954V24.6954C174.945 24.6954 173.583 25.3224 172.284 26.4871L172.952 27.2317ZM176.362 25.6954C177.576 25.6954 178.49 25.9488 179.149 26.4061L179.719 25.5847C178.841 24.9753 177.707 24.6954 176.362 24.6954V25.6954ZM179.162 26.4149C179.798 26.8277 180.118 27.4208 180.118 28.2674H181.118C181.118 27.1087 180.648 26.1871 179.706 25.5759L179.162 26.4149ZM180.118 28.2674C180.118 29.9445 179.378 31.3378 177.827 32.4717L178.417 33.2791C180.193 31.981 181.118 30.3023 181.118 28.2674H180.118ZM177.828 32.4711C176.262 33.6097 174.614 34.1674 172.874 34.1674V35.1674C174.845 35.1674 176.696 34.5304 178.416 33.2798L177.828 32.4711ZM172.874 34.1674C172.417 34.1674 171.857 34.1176 171.191 34.0134L171.037 35.0014C171.735 35.1106 172.349 35.1674 172.874 35.1674V34.1674ZM173.546 33.9514C174.665 33.9514 175.672 33.5909 176.549 32.8798L175.919 32.103C175.217 32.6719 174.432 32.9514 173.546 32.9514V33.9514ZM176.549 32.8798C177.38 32.2057 177.992 31.4754 178.353 30.6823L177.443 30.2685C177.163 30.8834 176.666 31.4971 175.919 32.103L176.549 32.8798ZM178.348 30.6936C178.711 29.9447 178.91 29.229 178.91 28.5554H177.91C177.91 29.0338 177.767 29.5982 177.448 30.2573L178.348 30.6936ZM178.91 28.5554C178.91 27.8317 178.621 27.2026 178.083 26.6893L177.393 27.4135C177.75 27.7536 177.91 28.1272 177.91 28.5554H178.91ZM178.091 26.6979C177.556 26.1624 176.908 25.8794 176.17 25.8794V26.8794C176.626 26.8794 177.024 27.0444 177.384 27.405L178.091 26.6979ZM176.17 25.8794C174.842 25.8794 173.719 26.7994 172.769 28.323L173.618 28.8519C174.503 27.4314 175.364 26.8794 176.17 26.8794V25.8794ZM172.767 28.3274C171.846 29.8407 171.185 31.4136 170.788 33.0452L171.76 33.2816C172.131 31.7559 172.75 30.2781 173.621 28.8474L172.767 28.3274ZM171.174 33.6533C172.127 33.8482 172.921 33.9514 173.546 33.9514V32.9514C173.018 32.9514 172.298 32.8626 171.374 32.6736L171.174 33.6533Z" fill="#0C0C0C" mask="url(#path-1-outside-1_1_198)"/>
</g>
<defs>
<filter id="filter0_d_1_198" x="0.8" y="0.803418" width="194.4" height="65.4" filterUnits="userSpaceOnUse" color-interpolation-filters="sRGB">
<feFlood flood-opacity="0" result="BackgroundImageFix"/>
<feColorMatrix in="SourceAlpha" type="matrix" values="0 0 0 0 0 0 0 0 0 0 0 0 0 0 0 0 0 0 127 0" result="hardAlpha"/>
<feOffset dx="1" dy="1"/>
<feGaussianBlur stdDeviation="5.6"/>
<feComposite in2="hardAlpha" operator="out"/>
<feColorMatrix type="matrix" values="0 0 0 0 0 0 0 0 0 0 0 0 0 0 0 0 0 0 0.08 0"/>
<feBlend mode="normal" in2="BackgroundImageFix" result="effect1_dropShadow_1_198"/>
<feBlend mode="normal" in="SourceGraphic" in2="effect1_dropShadow_1_198" result="shape"/>
</filter>
<clipPath id="clip0_1_198">
<rect width="172" height="43" fill="white" transform="translate(11 11.0034)"/>
</clipPath>
</defs>
</svg>
