<svg width="229" height="99" viewBox="0 0 229 99" fill="none" xmlns="http://www.w3.org/2000/svg">
<g filter="url(#filter0_d_1_221)">
<rect width="203" height="70" transform="translate(11.0518 9.02979) rotate(1.2865)" fill="#0C0C0C"/>
<path d="M62.5423 41.5378C62.4795 40.7919 62.1574 40.205 61.5759 39.777C61.0001 39.3492 60.2436 39.1248 59.3064 39.1038C58.6474 39.089 58.08 39.1757 57.6041 39.3639C57.1281 39.5521 56.7614 39.8138 56.5038 40.149C56.2462 40.4843 56.1096 40.8705 56.0941 41.3078C56.086 41.6713 56.1613 41.9884 56.32 42.2591C56.4844 42.5299 56.7094 42.7623 56.9949 42.9562C57.2805 43.1445 57.598 43.3051 57.9473 43.438C58.2967 43.5708 58.6494 43.6839 59.0053 43.7771L60.6321 44.2229C61.2876 44.391 61.9163 44.6126 62.5182 44.8875C63.1258 45.1626 63.6666 45.5044 64.1405 45.9129C64.6201 46.3215 64.9956 46.8101 65.267 47.3789C65.5383 47.9476 65.6656 48.6097 65.6486 49.3652C65.6256 50.3877 65.3441 51.2822 64.804 52.0486C64.2641 52.8094 63.495 53.3974 62.4968 53.8126C61.5044 54.2223 60.3095 54.4114 58.9121 54.38C57.5545 54.3495 56.3806 54.1129 55.3903 53.6701C54.4056 53.2274 53.6412 52.5964 53.097 51.7772C52.5584 50.9581 52.2794 49.9686 52.26 48.8088L55.37 48.8786C55.4018 49.4875 55.5779 49.9972 55.8983 50.4079C56.2187 50.8186 56.6408 51.1293 57.1646 51.34C57.6941 51.5508 58.2883 51.6636 58.9472 51.6784C59.6346 51.6938 60.239 51.6051 60.7605 51.4122C61.2878 51.2138 61.7033 50.9333 62.007 50.5707C62.3108 50.2024 62.4711 49.7684 62.488 49.2687C62.4926 48.8141 62.3675 48.4362 62.1128 48.1349C61.8583 47.828 61.4975 47.5699 61.0305 47.3605C60.5693 47.1455 60.0281 46.9515 59.4068 46.7784L57.433 46.2226C56.0041 45.8211 54.8806 45.236 54.0625 44.4675C53.2501 43.6934 52.8579 42.6815 52.886 41.4318C52.9091 40.4036 53.2076 39.5095 53.7817 38.7495C54.3614 37.9896 55.1388 37.4075 56.1141 37.0031C57.0894 36.5931 58.1878 36.4018 59.409 36.4292C60.6474 36.4571 61.7275 36.6973 62.6494 37.1499C63.5771 37.597 64.2993 38.2071 64.8162 38.9803C65.3332 39.7477 65.5892 40.623 65.5841 41.6061L62.5423 41.5378ZM74.0087 54.7105C72.6965 54.681 71.5694 54.3829 70.6273 53.8162C69.6911 53.2439 68.9786 52.4493 68.49 51.4324C68.0014 50.4098 67.7726 49.214 67.8033 47.845C67.8335 46.4988 68.1157 45.323 68.6497 44.3177C69.1896 43.3068 69.9289 42.5278 70.8676 41.9805C71.8063 41.4276 72.9006 41.1652 74.1503 41.1932C74.9569 41.2113 75.7151 41.3591 76.425 41.6365C77.1406 41.9083 77.7679 42.3202 78.3068 42.8722C78.8514 43.4243 79.2733 44.1215 79.5727 44.9637C79.8721 45.8001 80.009 46.7921 79.9832 47.9395L79.962 48.8853L69.2346 48.6444L69.2813 46.5654L77.052 46.7399C77.0596 46.149 76.9436 45.6207 76.704 45.155C76.4645 44.6836 76.1234 44.3093 75.6807 44.0323C75.2436 43.7554 74.7297 43.6103 74.1389 43.597C73.5084 43.5828 72.9511 43.7238 72.4671 44.0198C71.9831 44.3101 71.6022 44.6994 71.3241 45.1876C71.0518 45.6702 70.9063 46.204 70.8874 46.789L70.8467 48.6039C70.8296 49.3651 70.9541 50.0214 71.2202 50.573C71.4864 51.1189 71.8662 51.5423 72.3596 51.8432C72.8531 52.1385 73.435 52.2936 74.1052 52.3087C74.554 52.3187 74.9615 52.2654 75.3279 52.1486C75.6944 52.0261 76.0139 51.8429 76.2865 51.5989C76.5591 51.355 76.7677 51.0499 76.9123 50.6838L79.785 51.0722C79.5861 51.8293 79.2247 52.4861 78.7007 53.0427C78.1825 53.5937 77.5251 54.0166 76.7285 54.3112C75.9321 54.6003 75.0255 54.7333 74.0087 54.7105ZM85.7001 47.0449L85.5278 54.7135L82.4434 54.6442L82.7373 41.5566L85.6854 41.6228L85.6355 43.8467L85.7889 43.8501C86.1064 43.1241 86.5994 42.5526 87.2681 42.1357C87.9424 41.7189 88.768 41.5215 89.7451 41.5435C90.6482 41.5637 91.4306 41.7745 92.0922 42.1759C92.7595 42.5773 93.2696 43.1486 93.6223 43.8896C93.9808 44.6308 94.1454 45.5239 94.1163 46.569L93.9291 54.9021L90.8447 54.8329L91.0211 46.9769C91.0408 46.1021 90.8289 45.4125 90.3856 44.9081C89.9479 44.4038 89.3315 44.1428 88.5362 44.1249C87.9966 44.1128 87.5139 44.2213 87.0882 44.4504C86.6683 44.674 86.3341 45.0047 86.0856 45.4424C85.8427 45.8802 85.7142 46.4144 85.7001 47.0449ZM101.916 55.3117C100.888 55.2886 99.9738 55.0038 99.1734 54.4573C98.373 53.9107 97.7483 53.1295 97.2994 52.1135C96.8505 51.0974 96.6422 49.8709 96.6745 48.4337C96.7071 46.9795 96.9733 45.7579 97.4729 44.7689C97.9783 43.7743 98.6457 43.0306 99.4752 42.5377C100.305 42.0392 101.222 41.8012 102.228 41.8238C102.995 41.841 103.622 41.9858 104.11 42.2582C104.599 42.5249 104.984 42.8433 105.265 43.2134C105.547 43.5777 105.764 43.9207 105.916 44.2424L106.044 44.2453L106.19 37.7185L109.283 37.788L108.891 55.2381L105.858 55.17L105.904 53.108L105.717 53.1038C105.551 53.4184 105.313 53.7512 105.004 54.1023C104.695 54.4477 104.291 54.7398 103.791 54.9787C103.291 55.2175 102.666 55.3285 101.916 55.3117ZM102.834 52.8004C103.487 52.815 104.048 52.6515 104.516 52.3096C104.984 51.9621 105.344 51.4729 105.597 50.842C105.85 50.2112 105.986 49.4726 106.005 48.6262C106.024 47.7798 105.921 47.0415 105.697 46.4113C105.478 45.7813 105.142 45.2878 104.69 44.931C104.243 44.5743 103.688 44.3885 103.023 44.3735C102.336 44.3581 101.758 44.5241 101.29 44.8717C100.822 45.2192 100.464 45.7056 100.217 46.3309C99.9699 46.9562 99.8372 47.675 99.819 48.4873C99.8006 49.3053 99.9006 50.0378 100.119 50.6849C100.343 51.3265 100.681 51.837 101.133 52.2166C101.591 52.5906 102.158 52.7852 102.834 52.8004ZM118.266 55.4487L118.658 37.9985L121.819 38.0695L121.653 45.4569L129.739 45.6384L129.905 38.2511L133.075 38.3223L132.683 55.7724L129.513 55.7012L129.68 48.2883L121.594 48.1068L121.427 55.5197L118.266 55.4487ZM141.773 56.2323C140.461 56.2028 139.334 55.9047 138.391 55.338C137.455 54.7657 136.743 53.9711 136.254 52.9542C135.766 51.9316 135.537 50.7358 135.567 49.3668C135.598 48.0206 135.88 46.8448 136.414 45.8395C136.954 44.8286 137.693 44.0496 138.632 43.5023C139.571 42.9494 140.665 42.687 141.914 42.715C142.721 42.7332 143.479 42.8809 144.189 43.1583C144.905 43.4301 145.532 43.842 146.071 44.394C146.616 44.9462 147.037 45.6433 147.337 46.4855C147.636 47.3219 147.773 48.3139 147.747 49.4613L147.726 50.4071L136.999 50.1662L137.045 48.0872L144.816 48.2617C144.824 47.6708 144.708 47.1425 144.468 46.6768C144.229 46.2054 143.888 45.8312 143.445 45.5541C143.008 45.2772 142.494 45.1321 141.903 45.1188C141.273 45.1046 140.715 45.2456 140.231 45.5416C139.747 45.8319 139.366 46.2212 139.088 46.7094C138.816 47.1921 138.67 47.7259 138.652 48.3108L138.611 50.1257C138.594 50.8869 138.718 51.5432 138.984 52.0948C139.251 52.6407 139.63 53.0641 140.124 53.365C140.617 53.6603 141.199 53.8154 141.869 53.8305C142.318 53.8405 142.726 53.7872 143.092 53.6704C143.459 53.5479 143.778 53.3647 144.051 53.1207C144.323 52.8768 144.532 52.5717 144.676 52.2056L147.549 52.594C147.35 53.3511 146.989 54.008 146.465 54.5645C145.947 55.1155 145.289 55.5384 144.493 55.8331C143.696 56.1221 142.79 56.2552 141.773 56.2323ZM150.208 56.166L150.501 43.0784L153.492 43.1455L153.443 45.3268L153.58 45.3299C153.835 44.5797 154.257 44.0067 154.846 43.6107C155.44 43.2092 156.112 43.0168 156.862 43.0337C157.032 43.0375 157.223 43.0503 157.432 43.0721C157.648 43.0883 157.826 43.1122 157.968 43.1438L157.904 45.9811C157.774 45.9327 157.568 45.8883 157.285 45.8479C157.007 45.8018 156.738 45.7759 156.477 45.77C155.914 45.7574 155.406 45.8682 154.952 46.1024C154.503 46.331 154.147 46.6554 153.881 47.0757C153.616 47.496 153.477 47.9845 153.465 48.5412L153.292 56.2353L150.208 56.166ZM164.97 56.7533C163.658 56.7238 162.531 56.4257 161.589 55.8589C160.653 55.2866 159.94 54.492 159.451 53.4751C158.963 52.4525 158.734 51.2568 158.765 49.8878C158.795 48.5415 159.077 47.3658 159.611 46.3604C160.151 45.3496 160.89 44.5705 161.829 44.0233C162.768 43.4704 163.862 43.2079 165.112 43.236C165.918 43.2541 166.677 43.4019 167.386 43.6792C168.102 43.951 168.729 44.363 169.268 44.915C169.813 45.4671 170.235 46.1643 170.534 47.0064C170.834 47.8429 170.97 48.8349 170.945 49.9823L170.923 50.9281L160.196 50.6872L160.243 48.6081L168.013 48.7827C168.021 48.1918 167.905 47.6635 167.665 47.1977C167.426 46.7263 167.085 46.3521 166.642 46.075C166.205 45.7981 165.691 45.653 165.1 45.6398C164.47 45.6256 163.913 45.7665 163.429 46.0626C162.945 46.3529 162.564 46.7422 162.286 47.2304C162.013 47.713 161.868 48.2468 161.849 48.8318L161.808 50.6466C161.791 51.4078 161.916 52.0642 162.182 52.6158C162.448 53.1616 162.828 53.585 163.321 53.886C163.815 54.1812 164.396 54.3364 165.067 54.3514C165.515 54.3615 165.923 54.3081 166.289 54.1913C166.656 54.0688 166.975 53.8856 167.248 53.6417C167.521 53.3978 167.729 53.0927 167.874 52.7265L170.746 53.115C170.548 53.8721 170.186 54.5289 169.662 55.0855C169.144 55.6365 168.487 56.0593 167.69 56.354C166.894 56.643 165.987 56.7761 164.97 56.7533Z" fill="white"/>
</g>
<defs>
<filter id="filter0_d_1_221" x="0.480103" y="0.0297852" width="228.521" height="98.54" filterUnits="userSpaceOnUse" color-interpolation-filters="sRGB">
<feFlood flood-opacity="0" result="BackgroundImageFix"/>
<feColorMatrix in="SourceAlpha" type="matrix" values="0 0 0 0 0 0 0 0 0 0 0 0 0 0 0 0 0 0 127 0" result="hardAlpha"/>
<feOffset dx="3" dy="3"/>
<feGaussianBlur stdDeviation="6"/>
<feComposite in2="hardAlpha" operator="out"/>
<feColorMatrix type="matrix" values="0 0 0 0 0 0 0 0 0 0 0 0 0 0 0 0 0 0 0.12 0"/>
<feBlend mode="normal" in2="BackgroundImageFix" result="effect1_dropShadow_1_221"/>
<feBlend mode="normal" in="SourceGraphic" in2="effect1_dropShadow_1_221" result="shape"/>
</filter>
</defs>
</svg>
