<svg width="231" height="95" viewBox="0 0 231 95" fill="none" xmlns="http://www.w3.org/2000/svg">
<g filter="url(#filter0_d_1_72)">
<rect width="206" height="70" transform="translate(9.55029 9.88635)" fill="#0C0C0C"/>
<path d="M69.2719 53.8864V36.4318H72.4338V43.821H80.5219V36.4318H83.6923V53.8864H80.5219V46.4716H72.4338V53.8864H69.2719ZM86.9949 53.8864V40.7954H90.0801V53.8864H86.9949ZM88.546 38.9375C88.0574 38.9375 87.6369 38.7756 87.2847 38.4517C86.9324 38.1221 86.7563 37.7273 86.7563 37.267C86.7563 36.8011 86.9324 36.4062 87.2847 36.0824C87.6369 35.7528 88.0574 35.5881 88.546 35.5881C89.0403 35.5881 89.4608 35.7528 89.8074 36.0824C90.1597 36.4062 90.3358 36.8011 90.3358 37.267C90.3358 37.7273 90.1597 38.1221 89.8074 38.4517C89.4608 38.7756 89.0403 38.9375 88.546 38.9375ZM93.2527 53.8864V40.7954H96.2442V42.9773H96.3805C96.6192 42.2216 97.0283 41.6392 97.6078 41.2301C98.193 40.8153 98.8607 40.6079 99.6107 40.6079C99.7811 40.6079 99.9715 40.6165 100.182 40.6335C100.398 40.6449 100.577 40.6648 100.719 40.6932V43.5312C100.588 43.4858 100.381 43.446 100.096 43.4119C99.818 43.3721 99.5482 43.3523 99.2868 43.3523C98.7243 43.3523 98.2186 43.4744 97.7698 43.7187C97.3266 43.9574 96.9771 44.2898 96.7215 44.7159C96.4658 45.142 96.3379 45.6335 96.3379 46.1903V53.8864H93.2527ZM108.025 54.142C106.712 54.142 105.579 53.8693 104.624 53.3239C103.675 52.7727 102.945 51.9943 102.434 50.9886C101.922 49.9773 101.667 48.7869 101.667 47.4176C101.667 46.071 101.922 44.8892 102.434 43.8721C102.951 42.8494 103.672 42.054 104.599 41.4858C105.525 40.9119 106.613 40.625 107.863 40.625C108.67 40.625 109.431 40.7557 110.147 41.017C110.868 41.2727 111.505 41.6704 112.056 42.2102C112.613 42.75 113.05 43.4375 113.368 44.2727C113.687 45.1023 113.846 46.0909 113.846 47.2386V48.1846H103.116V46.1051H110.888C110.883 45.5142 110.755 44.9886 110.505 44.5284C110.255 44.0625 109.905 43.696 109.457 43.429C109.013 43.1619 108.496 43.0284 107.905 43.0284C107.275 43.0284 106.721 43.1818 106.243 43.4886C105.766 43.7898 105.394 44.1875 105.127 44.6818C104.866 45.1704 104.732 45.7074 104.726 46.2926V48.1079C104.726 48.8693 104.866 49.5227 105.144 50.0682C105.422 50.6079 105.812 51.0227 106.312 51.3125C106.812 51.5966 107.397 51.7386 108.067 51.7386C108.516 51.7386 108.922 51.6761 109.286 51.5511C109.65 51.4204 109.965 51.2301 110.232 50.9801C110.499 50.7301 110.701 50.4204 110.837 50.0511L113.718 50.375C113.536 51.1364 113.189 51.8011 112.678 52.3693C112.172 52.9318 111.525 53.3693 110.735 53.6818C109.945 53.9886 109.042 54.142 108.025 54.142ZM122.409 53.8864V40.7954H125.358V43.0199H125.511C125.784 42.2699 126.236 41.6846 126.866 41.2642C127.497 40.8381 128.25 40.625 129.125 40.625C130.011 40.625 130.758 40.8409 131.366 41.2727C131.98 41.6989 132.412 42.2812 132.662 43.0199H132.798C133.088 42.2926 133.577 41.7131 134.264 41.2812C134.957 40.8437 135.778 40.625 136.727 40.625C137.932 40.625 138.915 41.0057 139.676 41.767C140.437 42.5284 140.818 43.6392 140.818 45.0994V53.8864H137.724V45.5767C137.724 44.7642 137.508 44.1704 137.077 43.7954C136.645 43.4148 136.116 43.2244 135.491 43.2244C134.747 43.2244 134.165 43.4574 133.744 43.9233C133.329 44.3835 133.122 44.9829 133.122 45.7216V53.8864H130.096V45.4489C130.096 44.7727 129.892 44.2329 129.483 43.8295C129.079 43.4261 128.551 43.2244 127.898 43.2244C127.454 43.2244 127.051 43.3381 126.687 43.5653C126.324 43.7869 126.034 44.1023 125.818 44.5114C125.602 44.9148 125.494 45.3864 125.494 45.9261V53.8864H122.409ZM149.743 54.142C148.431 54.142 147.297 53.8693 146.343 53.3239C145.394 52.7727 144.664 51.9943 144.153 50.9886C143.641 49.9773 143.386 48.7869 143.386 47.4176C143.386 46.071 143.641 44.8892 144.153 43.8721C144.67 42.8494 145.391 42.054 146.317 41.4858C147.243 40.9119 148.332 40.625 149.582 40.625C150.388 40.625 151.15 40.7557 151.866 41.017C152.587 41.2727 153.224 41.6704 153.775 42.2102C154.332 42.75 154.769 43.4375 155.087 44.2727C155.405 45.1023 155.564 46.0909 155.564 47.2386V48.1846H144.834V46.1051H152.607C152.601 45.5142 152.474 44.9886 152.224 44.5284C151.974 44.0625 151.624 43.696 151.175 43.429C150.732 43.1619 150.215 43.0284 149.624 43.0284C148.993 43.0284 148.439 43.1818 147.962 43.4886C147.485 43.7898 147.113 44.1875 146.846 44.6818C146.584 45.1704 146.451 45.7074 146.445 46.2926V48.1079C146.445 48.8693 146.584 49.5227 146.863 50.0682C147.141 50.6079 147.53 51.0227 148.03 51.3125C148.53 51.5966 149.116 51.7386 149.786 51.7386C150.235 51.7386 150.641 51.6761 151.005 51.5511C151.368 51.4204 151.684 51.2301 151.951 50.9801C152.218 50.7301 152.42 50.4204 152.556 50.0511L155.437 50.375C155.255 51.1364 154.908 51.8011 154.397 52.3693C153.891 52.9318 153.243 53.3693 152.454 53.6818C151.664 53.9886 150.761 54.142 149.743 54.142Z" fill="white"/>
</g>
<defs>
<filter id="filter0_d_1_72" x="0.550293" y="0.886353" width="230" height="94" filterUnits="userSpaceOnUse" color-interpolation-filters="sRGB">
<feFlood flood-opacity="0" result="BackgroundImageFix"/>
<feColorMatrix in="SourceAlpha" type="matrix" values="0 0 0 0 0 0 0 0 0 0 0 0 0 0 0 0 0 0 127 0" result="hardAlpha"/>
<feOffset dx="3" dy="3"/>
<feGaussianBlur stdDeviation="6"/>
<feComposite in2="hardAlpha" operator="out"/>
<feColorMatrix type="matrix" values="0 0 0 0 0 0 0 0 0 0 0 0 0 0 0 0 0 0 0.12 0"/>
<feBlend mode="normal" in2="BackgroundImageFix" result="effect1_dropShadow_1_72"/>
<feBlend mode="normal" in="SourceGraphic" in2="effect1_dropShadow_1_72" result="shape"/>
</filter>
</defs>
</svg>
