<svg width="72" height="61" viewBox="0 0 72 61" fill="none" xmlns="http://www.w3.org/2000/svg">
<path d="M64.865 39.5705C65.6334 39.4493 65.6337 39.4493 65.6336 39.4489L65.633 39.4477C65.6328 39.4466 65.6324 39.4452 65.6321 39.4434C65.6315 39.4399 65.631 39.4349 65.63 39.4287C65.6279 39.4161 65.6251 39.398 65.6211 39.3747C65.6132 39.328 65.6007 39.2598 65.5845 39.1718C65.5522 38.9957 65.5033 38.739 65.4341 38.4127C65.2956 37.7603 65.0774 36.8272 64.7573 35.6937C64.1175 33.4278 63.0678 30.3511 61.4252 27.1131C58.1455 20.6483 52.4516 13.443 42.8601 10.8729C33.2686 8.30294 24.7349 11.6959 18.6622 15.6548C15.6206 17.6377 13.1731 19.7773 11.4861 21.4197C10.6422 22.2414 9.98662 22.9403 9.54056 23.4361C9.31746 23.684 9.14672 23.8819 9.0307 24.0183C8.97279 24.0863 8.92779 24.1392 8.89753 24.1757C8.88252 24.1938 8.87099 24.2082 8.86295 24.218C8.85897 24.2228 8.85599 24.2269 8.85375 24.2297C8.85265 24.231 8.85152 24.2321 8.85085 24.2329L8.84965 24.2336L9.45448 24.7233M64.865 39.5705C65.4699 40.0596 65.4699 40.0607 65.4696 40.061L65.4684 40.0617C65.4677 40.0626 65.4666 40.0637 65.4655 40.065C65.4632 40.0678 65.4603 40.0718 65.4563 40.0767C65.4482 40.0866 65.4368 40.1008 65.4217 40.119C65.3914 40.1555 65.3466 40.2082 65.2886 40.2764C65.1725 40.4128 65.0018 40.6107 64.7787 40.8586C64.3326 41.3544 63.677 42.0533 62.8331 42.8749C61.1461 44.5174 58.6987 46.657 55.6571 48.6399C49.5844 52.5987 41.0509 55.9908 31.4594 53.4208C21.868 50.8507 16.1737 43.6464 12.8941 37.1816C11.2515 33.9435 10.2017 30.8668 9.56193 28.601C9.24189 27.4675 9.02361 26.5344 8.88517 25.882C8.81593 25.5557 8.76702 25.299 8.73473 25.1229C8.7186 25.0349 8.70607 24.9667 8.69811 24.9199C8.69415 24.8967 8.69136 24.8786 8.68931 24.866C8.68828 24.8598 8.68775 24.8548 8.68718 24.8513C8.6869 24.8495 8.68648 24.8481 8.68631 24.847L8.68562 24.8458C8.68555 24.8454 8.68613 24.8444 9.45448 24.7233M64.865 39.5705L65.4699 40.0601C65.6082 39.889 65.6677 39.6672 65.6334 39.4498L64.865 39.5705ZM9.45448 24.7233L8.68587 24.8449C8.6516 24.6275 8.71107 24.4057 8.8494 24.2346L9.45448 24.7233Z" fill="#B3B3B3" stroke="#B3B3B3" stroke-width="1.55568" stroke-linejoin="round"/>
<path d="M62.4603 35.4065C63.2286 35.2854 63.2289 35.2854 63.2289 35.2849L63.2282 35.2837C63.228 35.2826 63.2276 35.2812 63.2273 35.2794C63.2267 35.2759 63.2262 35.271 63.2252 35.2647C63.2231 35.2522 63.2203 35.234 63.2164 35.2108C63.2084 35.164 63.1959 35.0959 63.1797 35.0079C63.1475 34.8318 63.0985 34.575 63.0293 34.2487C62.8909 33.5964 62.6726 32.6633 62.3525 31.5298C61.7128 29.2639 60.663 26.1872 59.0204 22.9492C55.7407 16.4843 50.0468 9.27901 40.4553 6.70898C30.8638 4.139 22.3301 7.53195 16.2574 11.4909C13.2158 13.4737 10.7684 15.6134 9.08136 17.2558C8.23742 18.0774 7.58184 18.7764 7.13578 19.2721C6.91267 19.5201 6.74194 19.718 6.62592 19.8543C6.568 19.9224 6.523 19.9753 6.49275 20.0117C6.47774 20.0299 6.46621 20.0442 6.45816 20.054C6.45418 20.0589 6.45121 20.063 6.44896 20.0657C6.44786 20.0671 6.44674 20.0682 6.44607 20.069L6.44487 20.0697L7.04969 20.5593M62.4603 35.4065C63.0651 35.8956 63.0651 35.8967 63.0648 35.8971L63.0636 35.8978C63.0629 35.8986 63.0618 35.8997 63.0607 35.9011C63.0585 35.9038 63.0555 35.9079 63.0515 35.9128C63.0435 35.9226 63.032 35.9369 63.0169 35.9551C62.9867 35.9916 62.9418 36.0443 62.8838 36.1125C62.7678 36.2488 62.597 36.4467 62.3739 36.6947C61.9278 37.1904 61.2723 37.8894 60.4283 38.711C58.7413 40.3534 56.2939 42.493 53.2523 44.4759C47.1796 48.4348 38.6461 51.8269 29.0546 49.2569C19.4632 46.6868 13.769 39.4825 10.4893 33.0176C8.84667 29.7796 7.79693 26.7029 7.15715 24.437C6.8371 23.3035 6.61883 22.3704 6.48039 21.7181C6.41115 21.3918 6.36223 21.135 6.32995 20.9589C6.31381 20.8709 6.30128 20.8028 6.29333 20.756C6.28937 20.7327 6.28658 20.7146 6.28452 20.7021C6.2835 20.6958 6.28297 20.6909 6.2824 20.6874C6.28211 20.6856 6.28169 20.6842 6.28152 20.6831L6.28083 20.6819C6.28076 20.6814 6.28135 20.6805 7.04969 20.5593M62.4603 35.4065L63.0651 35.8962C63.2035 35.725 63.2629 35.5033 63.2286 35.2859L62.4603 35.4065ZM7.04969 20.5593L6.28109 20.6809C6.24681 20.4636 6.30628 20.2418 6.44462 20.0706L7.04969 20.5593Z" fill="#44E2F8" stroke="black" stroke-width="1.55568" stroke-linejoin="round"/>
<path d="M37.7075 13.5516C44.8761 15.1531 49.1541 22.7721 47.4388 30.4509C45.7233 38.1299 38.6097 43.2039 31.441 41.6024C24.2724 40.0008 19.9942 32.3819 21.7097 24.7031C23.4252 17.0243 30.539 11.9503 37.7075 13.5516Z" fill="white" stroke="black" stroke-width="1.55568" stroke-linecap="round" stroke-linejoin="round"/>
<path d="M36.5174 18.4761C41.0915 19.4981 43.9109 24.1294 42.8713 28.7832C41.8315 33.4369 37.3094 36.4272 32.7354 35.4055C28.1613 34.3837 25.3408 29.753 26.3803 25.0992C27.42 20.4452 31.9432 17.4543 36.5174 18.4761Z" fill="#FC75FF" stroke="black" stroke-width="1.55568" stroke-linecap="round" stroke-linejoin="round"/>
<ellipse cx="34.3106" cy="26.1995" rx="3.81325" ry="3.92484" transform="rotate(12.5931 34.3106 26.1995)" fill="black"/>
</svg>
