<svg width="53" height="58" viewBox="0 0 53 58" fill="none" xmlns="http://www.w3.org/2000/svg">
<path d="M4.60982 56.2423C4.58364 56.6995 4.78403 57.1405 5.14576 57.4215C5.50749 57.7025 5.98428 57.7876 6.42089 57.6491L22.8791 52.4293C23.1542 52.3421 23.3953 52.1716 23.5693 51.9413L50.2982 16.554C50.5926 16.1643 50.6612 15.6488 50.4791 15.1956C48.7323 10.8488 45.3819 7.65924 41.8249 5.60194C38.2874 3.55594 34.4014 2.54655 31.4248 2.70255C30.9983 2.7249 30.6057 2.94171 30.3596 3.29075L5.86295 38.0381C5.71305 38.2508 5.62572 38.5011 5.61085 38.7608L4.60982 56.2423Z" fill="#B3B3B3"/>
<path d="M28.5358 0.762457C31.3494 0.615025 35.1027 1.57498 38.5509 3.5693C42.0088 5.56929 45.2327 8.65202 46.9078 12.8204C46.9986 13.0468 46.9642 13.3042 46.8172 13.4989L20.0877 48.8868C20.0009 49.0016 19.8808 49.0871 19.7436 49.1307L3.28519 54.3498C3.06696 54.419 2.82837 54.3769 2.64753 54.2365C2.46678 54.0961 2.36608 53.8757 2.37901 53.6472L3.38051 36.1656L3.39305 36.0691C3.41198 35.9742 3.45011 35.8837 3.50629 35.804L28.0035 1.05634L28.0521 0.994142C28.175 0.856265 28.3491 0.772238 28.5358 0.762457Z" fill="white" stroke="black" stroke-width="1.39241" stroke-linejoin="round"/>
<path d="M28.5723 1.45778L4.07561 36.2052C7.17589 36.6091 14.6077 39.627 19.5328 48.4668L46.2617 13.0796C43.0549 5.09959 33.8736 1.17995 28.5723 1.45778Z" fill="#FF5757"/>
<path d="M24.4233 6.62197C29.4691 6.49439 33.5471 8.474 36.577 10.9743C39.5977 13.467 41.605 16.4991 42.5388 18.5604C42.644 18.7926 42.6141 19.0641 42.4605 19.2676L20.0883 48.8863C19.9459 49.0748 19.7175 49.1788 19.4818 49.1615C19.2461 49.1442 19.0355 49.008 18.9221 48.8007C14.2551 40.2657 6.93855 37.3108 3.97869 36.8946C3.73849 36.8608 3.53323 36.7045 3.43682 36.4819C3.34045 36.2593 3.36718 36.0028 3.50693 35.8045L23.8716 6.91687L23.923 6.85257C24.0501 6.71127 24.2309 6.62683 24.4233 6.62197Z" fill="#F8D044" stroke="black" stroke-width="1.39241" stroke-linejoin="round"/>
<path d="M3.57486 44.9461L3.07435 53.6868L11.3035 51.0769C8.60017 47.3842 5.02469 45.451 3.57486 44.9461Z" fill="black"/>
<path d="M17.7112 46.1224L40.6455 15.6506" stroke="black" stroke-width="1.39241" stroke-linecap="round" stroke-linejoin="round"/>
<path d="M10.1769 39.5454L31.6691 8.26695" stroke="black" stroke-width="1.39241" stroke-linecap="round" stroke-linejoin="round"/>
</svg>
