<svg width="123" height="117" viewBox="0 0 123 117" fill="none" xmlns="http://www.w3.org/2000/svg">
<mask id="mask0_1_18" style="mask-type:alpha" maskUnits="userSpaceOnUse" x="0" y="1" width="122" height="116">
<rect x="0.731689" y="15.1754" width="109" height="102" transform="rotate(-7.35424 0.731689 15.1754)" fill="#D9D9D9"/>
</mask>
<g mask="url(#mask0_1_18)">
<path fill-rule="evenodd" clip-rule="evenodd" d="M96.6546 77.7417C95.2113 74.1356 94.1225 72.6682 92.2463 71.5922C90.4915 70.5858 88.0268 69.8684 84.5263 69.5637C80.9004 69.4015 80.5621 67.5719 79.2908 64.7252C78.9165 63.8684 77.6006 63.7974 77.1287 64.5107C77.0396 64.4364 76.9481 64.3696 76.8547 64.3106C76.8754 63.8763 76.1 62.7391 76.0682 62.3303C75.7367 58.0631 74.0751 56.1133 70.5113 55.7687C69.7363 55.6937 64.6099 56.2523 63.9021 56.5499C60.8077 57.8511 58.0122 61.0751 58.9335 64.4054C58.0961 65.8515 57.214 66.782 55.7147 67.4066C53.3343 68.0262 58.9742 102.148 65.8278 122.142C68.7683 130.721 109.953 110.158 107.434 105.996C107.606 105.152 106.988 104.328 107.108 103.463C107.194 102.837 107.583 102.533 107.718 101.907C107.907 101.026 107.437 99.938 106.99 99.1218C106.797 98.7111 107.129 98.1996 107.181 97.7484C107.43 95.62 106.273 95.954 105.245 94.6854C105.257 94.6795 105.351 93.6669 105.351 93.6719C105.39 92.9526 104.948 92.0946 104.588 91.5449C104.344 91.1734 103.9 90.9785 103.497 91.0768C103.728 89.6241 104.099 88.3923 104.486 86.9716C105.171 84.4668 105.793 81.8588 106.94 79.5237C107.409 78.5675 106.834 77.8181 105.882 77.8799C102.802 78.0801 99.7245 78.0303 96.6546 77.7417Z" fill="white"/>
<path fill-rule="evenodd" clip-rule="evenodd" d="M58.81 67.0882L81.4517 68.1159L92.2473 71.5917L94.0739 72.657L86.4745 91.3434L71.6278 96.0796L69.0525 106.64L71.3069 117.878L95.6614 111.737L106.167 109.092L109.982 118.893L110.067 123.117L109.68 125.314L84.1512 135.868C84.1512 135.868 70.5137 136.301 68.1261 136.609C65.7385 136.917 48.4573 140.915 48.4573 140.915L44.3512 141.005C44.3512 141.005 34.171 132.718 32.3474 129.536C30.5237 126.354 24.8812 106.311 24.8812 106.311L24.807 103.129L29.9781 82.2078C29.9781 82.2078 30.8908 81.1356 31.988 79.369C33.0851 77.6025 58.81 67.0882 58.81 67.0882Z" fill="#9DDADB"/>
<path fill-rule="evenodd" clip-rule="evenodd" d="M102.594 90.6946C100.606 91.0545 98.6647 91.7887 96.966 92.8841C96.271 93.3328 95.6658 93.9293 95.5776 94.7934C95.5336 95.2346 95.615 95.674 95.7237 96.0998C95.8058 96.4223 95.8697 96.8393 96.1831 97.0244C96.2365 97.0556 96.2921 97.0776 96.3489 97.0916C95.72 97.4791 95.131 97.9232 94.6141 98.3691C94.1417 98.7767 93.6786 99.3706 93.5167 99.994C93.4882 99.9292 93.4602 99.869 93.4326 99.8119C92.8716 98.6637 92.1189 97.7611 91.048 97.2271C90.8835 96.8338 89.4559 95.2335 88.3488 95.4438C87.1363 95.6732 86.1652 95.8893 85.1328 96.5936C84.729 96.6368 84.3278 96.6942 83.9329 96.7631C83.8648 96.7741 83.8801 96.8665 83.9462 96.8657C84.2737 96.8651 84.6018 96.8686 84.9309 96.88C85.7126 96.9038 86.4964 96.9607 87.2684 97.0574C88.1946 97.1736 89.1517 97.2867 90.0416 97.5836C91.7676 98.161 93.0386 100.088 93.0632 101.905C93.0669 102.203 93.0678 103.105 92.6486 103.066C92.2944 103.033 92.0648 102.332 91.9102 102.082C91.4968 101.417 90.8567 101.031 90.12 100.808C89.2548 100.546 88.3476 100.411 87.4626 100.231C86.9614 100.129 86.4601 100.026 85.9578 99.925C85.4438 99.8198 84.9458 99.6472 84.4369 99.8329C84.1294 99.9456 84.1417 100.328 84.3473 100.521C84.6602 100.816 85.0745 100.861 85.4816 100.947C86.019 101.059 86.5552 101.172 87.0915 101.284C87.9205 101.458 88.7817 101.584 89.5988 101.821L89.5818 101.88C89.5165 101.87 89.4506 101.943 89.4729 102.018C89.6809 102.717 89.9486 103.522 89.862 104.26C89.794 104.846 89.3773 105.538 88.7091 105.455C88.7987 105.349 88.8156 105.184 88.728 105.045C88.4012 104.531 84.7674 102.803 84.5719 103.644C84.5657 103.674 84.5992 103.691 84.623 103.683C84.8711 103.597 85.3543 103.977 85.5762 104.089C85.8965 104.249 86.2206 104.405 86.5385 104.571C86.8862 104.753 87.2276 104.947 87.5623 105.15C87.8252 105.309 88.0306 105.483 88.3166 105.544C88.182 105.631 88.0846 105.772 88.0571 105.941C87.9881 106.379 87.796 106.769 87.4062 107.009C86.9975 107.259 86.4928 107.2 86.042 107.306C85.4277 107.449 84.9229 107.815 84.5239 108.296C83.6862 109.309 83.4106 110.938 82.1328 111.53C81.3695 111.883 80.4662 111.839 79.6459 111.83C78.73 111.819 77.8408 111.831 76.9518 112.081C76.1007 112.32 75.3195 112.726 74.5744 113.194C73.8759 113.633 73.105 114.128 72.5122 114.725C72.3225 114.324 72.1322 113.928 71.9732 113.514C71.598 112.536 71.3328 111.525 71.1668 110.491C71.0096 109.508 70.9368 108.508 70.8947 107.514C70.8734 107.017 70.8765 106.52 70.855 106.023C70.85 105.898 70.8551 105.763 70.8546 105.629C71.9414 104.783 73.1087 104.091 74.2841 103.383C74.2874 103.381 74.2904 103.379 74.2936 103.377C74.3299 103.354 74.3653 103.333 74.4018 103.312C74.4004 103.309 74.399 103.308 74.3965 103.306C74.5276 103.2 74.612 103.071 74.6548 102.933C76.2967 101.511 77.5878 99.6915 78.4622 97.6509C78.8286 96.7958 79.1736 95.9131 79.6974 95.1377C80.2548 94.3105 80.9737 93.7689 81.9042 93.4154C82.9919 93.0014 84.1277 92.6909 85.2658 92.4508C85.8874 92.3202 86.5792 92.1523 87.264 92.0674C87.7412 92.0091 88.2132 91.9897 88.6567 92.0525C89.3138 92.1449 89.7469 92.5795 90.2083 93.0157C90.6494 93.4347 91.0885 93.8548 91.5068 94.2968C91.903 94.7157 92.2826 95.1525 92.6232 95.6179C92.8275 95.8967 93.0208 96.1861 93.1911 96.4882C93.2509 96.5951 93.327 96.7153 93.3696 96.8287C93.4125 96.9432 93.3778 97.0746 93.5103 97.0575C92.9649 97.1356 92.7777 98.5447 93.3165 98.4426C94.0742 98.2997 94.3399 97.3349 94.0855 96.5422C93.6317 95.1279 91.9646 93.5642 91.6316 93.2304C90.8958 92.4928 90.108 91.5084 89.0501 91.2578C89.035 91.2541 89.0189 91.2507 89.004 91.2481C89.2616 90.9321 89.4504 90.569 89.6285 90.2014C89.8119 89.8232 90.0328 89.3885 90.0546 88.9649C90.068 88.6951 89.7208 88.5873 89.595 88.838C89.4122 89.2038 89.3579 89.6439 89.2368 90.0355C89.1131 90.4329 88.9491 90.8142 88.8324 91.2141C88.4182 91.143 87.9805 91.1424 87.54 91.1802C87.9963 90.3606 88.7546 88.795 88.8444 88.5949C89.2567 87.6688 89.6402 86.7195 90.0015 85.7718C90.3918 84.7453 90.7032 83.6886 91.07 82.6538C91.2782 82.0672 91.488 81.4757 91.7291 80.9015C91.8125 80.7045 91.9037 80.5064 92.0124 80.323C92.0335 80.2867 92.062 80.255 92.0878 80.2201C92.1195 80.1969 92.1522 80.1714 92.1706 80.1579C92.336 80.0322 92.3683 79.7857 92.4745 79.6182C92.644 79.3485 92.8764 79.2893 93.1784 79.2468C93.822 79.157 94.4721 79.0989 95.1178 79.0336C96.067 78.938 97.0165 78.8536 97.9676 78.7813C98.2555 78.7599 98.5422 78.7386 98.8303 78.7193C100.215 78.6238 101.602 78.5535 102.988 78.5082C104.215 78.4676 105.451 78.5 106.676 78.434C105.537 82.5472 104.21 86.6129 102.626 90.5762C102.61 90.6163 102.599 90.6558 102.594 90.6946ZM94.7799 101.922C94.5307 102.077 94.293 102.262 94.0758 102.465C94.0809 102.192 94.0544 101.908 94.0067 101.625C94.2316 101.812 94.5 101.901 94.7799 101.922ZM105.22 93.7515C105.202 93.756 105.185 93.7682 105.179 93.7881C104.91 94.5914 105.172 95.4159 105.847 95.9313C106.201 96.1999 106.929 96.4604 106.972 96.971C107.006 97.3839 106.604 97.7859 106.457 98.1494C106.32 98.488 106.298 98.843 106.485 99.1669C106.723 99.5814 107.255 99.6901 107.485 100.098C107.776 100.616 107.502 101.321 107.312 101.829C107.135 102.3 106.889 102.779 106.749 103.271C105.493 104.141 102.604 105.799 102.245 105.918C101.808 106.063 101.37 106.203 100.93 106.339C100.085 106.6 99.2365 106.851 98.3838 107.086C97.8983 107.219 97.4116 107.352 96.9231 107.47C96.4964 107.572 96.0168 107.698 95.626 107.417C94.8381 106.85 95.0898 105.697 95.4488 104.975C95.4559 104.961 95.4544 104.948 95.4496 104.938C95.8563 104.785 96.2598 104.617 96.6665 104.482C97.4489 104.224 98.24 103.99 99.034 103.769C100.665 103.318 102.318 102.945 103.969 102.572C104.377 102.478 104.298 101.827 103.885 101.919C101.512 102.449 99.127 102.969 96.8183 103.737C96.2393 103.928 95.6667 104.134 95.0997 104.357C94.8316 104.461 94.5485 104.606 94.2587 104.647C94.241 104.649 94.2233 104.652 94.2056 104.653C93.6349 104.709 93.4893 104.233 93.7494 103.787C93.7816 103.733 93.8149 103.678 93.8496 103.625C94.3165 102.896 94.9473 102.368 95.5971 101.822C96.3768 101.611 97.137 101.269 97.8912 100.992C99.7529 100.307 101.615 99.6226 103.478 98.9389C103.843 98.8043 103.608 98.2466 103.243 98.3802C101.829 98.8983 100.414 99.4162 99 99.9342L96.9303 100.693C96.5167 100.844 96.0096 101.106 95.5175 101.24C95.2748 101.306 95.0359 101.341 94.8131 101.318C94.0931 101.243 93.9451 100.375 94.1795 99.817C94.442 99.1908 95.0328 98.7442 95.5564 98.3411C96.4636 97.6417 97.4545 97.0953 98.413 96.4891C98.5889 96.426 98.7647 96.3629 98.9406 96.2998C99.9636 95.9322 101.152 95.6633 102.088 95.1106C102.369 94.9463 102.146 94.4993 101.853 94.5438C101.086 94.6598 100.317 95.0372 99.5864 95.2964C98.7958 95.578 98.004 95.8586 97.2133 96.1391C97.1339 96.1673 96.6704 96.3841 96.5932 96.3593C96.544 96.3432 96.5067 96.1844 96.4775 96.0803C96.3827 95.738 96.2991 95.3764 96.3081 95.0194C96.326 94.2194 96.9328 93.7663 97.5561 93.3795C98.9441 92.5193 100.507 91.8914 102.094 91.5159C102.46 91.4294 102.828 91.3573 103.199 91.297C103.636 91.2272 103.987 91.1033 104.264 91.5062C104.701 92.141 105.005 92.9904 105.22 93.7515ZM106.354 118.664C105.889 117.595 105.824 116.397 105.457 115.292C105.268 114.722 105.038 114.162 104.795 113.613C104.599 113.169 104.308 112.708 104.22 112.231C104.214 112.199 104.25 112.175 104.278 112.187C104.765 112.388 105.185 112.904 105.5 113.311C105.878 113.798 106.185 114.319 106.451 114.875C106.98 115.982 107.472 117.336 107.132 118.564C107.031 118.929 106.528 119.065 106.354 118.664ZM94.9015 128.694C94.3796 128.421 93.9705 127.999 93.5113 127.64C93.0597 127.286 93.6033 126.581 94.055 126.935C94.4468 127.242 94.8042 127.642 95.2486 127.874C95.4625 127.985 95.5853 128.221 95.4851 128.457C95.3965 128.666 95.1148 128.805 94.9015 128.694ZM90.5744 116.198C91.3996 115.708 92.206 115.185 93.0855 114.795C93.6111 114.562 93.9526 115.384 93.4301 115.616C92.6201 115.976 91.8783 116.451 91.1184 116.903C90.6305 117.193 90.0833 116.49 90.5744 116.198ZM81.3106 117.125C81.0288 116.625 81.854 116.287 82.1316 116.78C82.4513 117.347 82.8045 117.894 83.1242 118.461C83.4058 118.961 82.5808 119.299 82.3031 118.806C81.9834 118.239 81.6302 117.692 81.3106 117.125ZM73.5599 128.831C73.442 129.04 73.2179 129.173 72.9764 129.068C72.774 128.98 72.6207 128.695 72.74 128.484C73.0885 127.869 73.4433 127.26 73.8719 126.696C74.2195 126.239 74.9241 126.784 74.5768 127.24C74.194 127.743 73.8712 128.282 73.5599 128.831ZM64.6312 69.9126C65.0722 70.1371 65.4706 70.4275 65.8615 70.7288C66.3159 71.0791 65.772 71.7839 65.3176 71.4336C64.9883 71.1797 64.6559 70.9217 64.284 70.7325C64.0691 70.6231 63.9481 70.3837 64.0476 70.1489C64.1368 69.9386 64.4169 69.8036 64.6312 69.9126ZM79.7185 82.4098C79.5486 82.8981 79.4004 83.3745 79.4547 83.8976C79.5141 84.4674 78.6312 84.5817 78.5719 84.0116C78.5007 83.327 78.6759 82.7028 78.8986 82.0625C79.0869 81.5206 79.906 81.8701 79.7185 82.4098ZM83.1086 70.3715C83.5424 69.9938 84.0827 70.702 83.6527 71.0764C83.3041 71.3798 82.9554 71.6834 82.6068 71.9869C82.1732 72.3644 81.6329 71.6564 82.0628 71.282C82.4114 70.9785 82.76 70.675 83.1086 70.3715ZM64.5915 93.0441C64.5829 93.6157 63.7013 93.4854 63.7098 92.9194C63.7231 92.0445 63.7653 91.1775 63.8903 90.3109C63.9721 89.7438 64.8538 89.8679 64.7719 90.4357C64.6469 91.3024 64.6047 92.1694 64.5915 93.0441ZM62.8013 103.557C62.2315 103.619 62.1174 102.736 62.6873 102.674C63.203 102.619 63.7261 102.689 64.2381 102.749C64.8077 102.815 64.6823 103.697 64.1133 103.63C63.6804 103.58 63.2373 103.51 62.8013 103.557ZM64.288 124.077C64.105 124.198 63.9157 124.309 63.7301 124.425C63.3582 124.656 62.9865 124.888 62.6151 125.121C61.8412 125.604 61.0679 126.089 60.2955 126.576C58.7493 127.549 57.187 128.497 55.6358 129.463C54.054 130.448 52.4779 131.442 50.9044 132.44C50.1631 132.91 49.414 133.368 48.667 133.829C48.0283 134.223 47.2591 134.867 46.521 135.014C46.483 135.021 46.464 134.975 46.4826 134.947C46.7226 134.591 47.1474 134.347 47.4902 134.091C47.8405 133.83 48.1994 133.58 48.5562 133.328C49.2999 132.802 50.0451 132.279 50.7986 131.767C52.3057 130.743 53.8166 129.725 55.328 128.707C56.8694 127.669 58.408 126.626 59.9677 125.616C60.702 125.14 61.4373 124.665 62.1731 124.191C62.5718 123.935 62.9707 123.679 63.3696 123.423C63.5419 123.312 63.7115 123.195 63.8891 123.093C64.1251 122.958 64.3173 122.954 64.5662 122.858C64.9722 122.7 65.2226 123.21 64.9306 123.484C64.6902 123.709 64.5719 123.891 64.288 124.077ZM59.5624 133.892C59.4433 133.683 59.5985 133.391 59.8006 133.309C60.0427 133.21 60.2634 133.337 60.3835 133.547C60.7015 134.105 61.116 134.6 61.6187 134.999C62.0679 135.356 61.5245 136.061 61.0749 135.704C60.445 135.204 59.9592 134.587 59.5624 133.892ZM53.3969 120.279C52.9425 119.929 53.4864 119.224 53.9407 119.574L55.2326 120.571C55.687 120.921 55.1431 121.626 54.6889 121.275L53.3969 120.279ZM41.4169 119.929C40.6254 120.276 39.6946 120.622 39.2243 121.396C39.2013 121.434 39.1496 121.396 39.1617 121.36C39.6876 119.778 41.6793 118.99 43.0377 118.285C43.9984 117.786 44.9936 117.346 46.0017 116.938C45.7438 115.762 45.8668 114.449 45.8139 113.252C45.7574 111.973 45.6806 110.694 45.5615 109.42C45.44 108.12 45.2829 106.816 45.0733 105.527C44.8645 104.243 44.5326 102.991 44.2935 101.715C44.2704 101.592 44.4427 101.563 44.4932 101.661C45.0804 102.798 45.436 104.095 45.7394 105.335C46.0518 106.611 46.2668 107.897 46.4164 109.202C46.5701 110.545 46.6647 111.891 46.7302 113.241C46.7612 113.88 46.784 114.52 46.8101 115.16C46.83 115.648 46.8722 116.129 46.8341 116.609C47.4434 116.374 48.0553 116.146 48.6657 115.923C50.6122 115.212 52.5712 114.532 54.5045 113.785C55.4536 113.419 56.3824 113.007 57.3251 112.625C58.2127 112.266 59.1447 111.85 60.074 111.621C60.4057 111.539 60.5079 111.994 60.3053 112.179C59.6082 112.816 58.6384 113.322 57.7919 113.738C56.9423 114.155 56.0466 114.491 55.1647 114.833C53.3255 115.545 51.4574 116.175 49.5942 116.82C47.7335 117.464 45.8689 118.105 44.0418 118.84C43.1619 119.193 42.2852 119.548 41.4169 119.929ZM33.8604 96.8906C33.4061 97.2427 32.8638 96.5366 33.3165 96.1858C33.9088 95.7269 34.5554 95.3561 35.2084 94.9916C35.7095 94.7119 36.0471 95.5368 35.553 95.8127C34.9662 96.1402 34.3927 96.4784 33.8604 96.8906ZM36.314 129.922C35.858 130.271 35.3154 129.565 35.7701 129.217C36.4087 128.728 37.1301 128.363 37.8002 127.921C38.2769 127.606 38.8222 128.31 38.3441 128.626C37.6741 129.068 36.9526 129.433 36.314 129.922ZM33.1103 111.406C33.6453 111.797 34.3088 111.928 34.9392 112.088C35.4888 112.228 35.3697 113.111 34.8143 112.97C34.0289 112.77 33.233 112.598 32.5665 112.11C32.1029 111.771 32.6479 111.067 33.1103 111.406ZM35.1188 85.4383C35.6692 85.5762 35.5499 86.4594 34.994 86.3201C34.3773 86.1656 33.7486 86.0686 33.132 85.9141C32.5817 85.7762 32.7009 84.8932 33.2568 85.0324C33.8735 85.1868 34.5022 85.2839 35.1188 85.4383ZM43.1231 74.1939C43.6676 74.0282 44.0145 74.8485 43.4677 75.0151C42.7893 75.2217 42.1241 75.4468 41.4991 75.7861C40.9945 76.0602 40.6564 75.2356 41.1545 74.9651C41.7795 74.6257 42.4448 74.4005 43.1231 74.1939ZM49.3523 98.2519C48.8095 98.0669 49.1592 97.248 49.6995 97.4322C50.269 97.6263 50.85 97.7582 51.4503 97.8071C52.022 97.8539 51.8948 98.7355 51.3255 98.6889C50.6498 98.6336 49.9927 98.4703 49.3523 98.2519ZM50.477 84.1027C51.0071 83.8813 51.3495 84.7032 50.8216 84.9239C49.8927 85.3119 48.919 85.5771 47.9794 85.937C47.4438 86.1421 47.1001 85.3207 47.6348 85.116C48.5744 84.7559 49.5482 84.491 50.477 84.1027ZM62.2318 78.191C62.804 78.2223 62.6756 79.1038 62.107 79.0728C61.5017 79.0397 60.9023 79.1153 60.3029 79.1923C59.7339 79.2655 59.6209 78.3825 60.189 78.3094C60.8699 78.2218 61.5445 78.1535 62.2318 78.191ZM102.984 77.6204C101.523 77.6686 100.064 77.7447 98.6069 77.8487C98.539 77.854 98.4723 77.8582 98.4045 77.8635C98.3949 77.8491 98.3831 77.836 98.371 77.8218C97.8093 77.1897 97.3723 76.5416 96.9698 75.7968C96.5855 75.0879 96.207 74.3548 95.6765 73.7389C95.0715 73.0372 94.3109 72.5252 93.495 72.1017C93.0803 72.4657 92.705 72.8776 92.3683 73.3064C92.0139 73.7575 91.3089 73.2139 91.6634 72.7626C91.9626 72.3816 92.2882 72.0233 92.6385 71.6923C92.1571 71.4786 91.6687 71.2825 91.1916 71.0862C89.4035 70.3511 87.5851 69.6925 85.741 69.1138C84.8838 68.844 84.022 68.6175 83.1542 68.3873C82.6871 68.2637 82.219 68.0872 81.7483 67.9349C81.7398 67.6172 81.6007 67.2784 81.3335 67.1031C81.1363 66.9748 80.991 66.9363 80.7653 66.8567C80.7157 66.8462 80.6858 66.84 80.6718 66.8362C80.682 66.8371 80.7119 66.8422 80.7612 66.8515C80.8806 66.889 80.8874 66.8723 80.782 66.8029C80.7534 66.6249 80.3525 66.2929 80.2483 66.119C79.8863 65.5227 79.7128 64.8651 79.2246 64.3425C78.5516 63.6226 77.5549 63.4462 76.6967 63.8306C76.4809 62.8879 76.328 61.8946 75.8583 61.0889C75.8454 61.0671 75.8121 61.0612 75.801 61.0884C75.5082 61.776 75.5681 62.4918 75.6345 63.2328C75.6963 63.9283 75.8139 64.6323 75.9933 65.3082C75.9416 65.3597 75.8885 65.4093 75.8331 65.4579C75.5726 65.6822 75.2844 65.8664 74.976 66.0152C74.3886 66.2973 73.7566 66.4687 73.1171 66.5826C71.4664 66.8764 69.7331 66.9296 68.0629 66.8557C66.3736 66.7809 63.785 66.6751 62.2083 66.0383C61.1677 65.6184 60.1869 65.0683 59.1964 64.5409C59.3887 63.4389 59.3255 62.2892 58.8789 61.4369C58.8254 61.3349 58.6551 61.3367 58.6394 61.4678C58.5422 62.3488 58.5923 63.2152 58.4254 64.0951C58.4225 64.1078 58.4199 64.1217 58.417 64.1343C58.3234 64.0871 58.2299 64.0407 58.1364 63.9944C57.9208 63.8887 57.6631 64.0219 57.5681 64.2248C56.0496 67.4738 53.0535 68.0355 49.9531 68.9811C46.5601 70.0158 43.1556 71.0992 39.9687 72.6786C36.9211 74.1895 34.0795 76.1832 31.9733 78.8853C31.4965 79.4971 31.0597 80.1397 30.6549 80.804C31.1293 80.8026 31.6041 80.8344 32.0797 80.919C32.6427 81.0191 32.5202 81.9013 31.9548 81.8007C31.3436 81.6919 30.738 81.6773 30.1322 81.7093C28.7811 84.1656 27.8303 86.8758 27.0473 89.5237C25.5453 94.6006 24.8243 99.894 24.8609 105.184C25.1828 104.93 25.5124 104.684 25.8526 104.452C26.3253 104.13 26.8698 104.834 26.3966 105.157C25.8711 105.516 25.3655 105.902 24.8803 106.312C24.9433 108.621 25.1498 110.927 25.4998 113.21C26.3337 118.655 27.7963 124.18 30.1364 129.175C31.2842 131.627 32.6953 134.023 34.5888 135.976C35.4457 136.86 36.3896 137.636 37.4624 138.246C37.982 138.542 38.5243 138.797 39.0876 138.998C39.8136 139.258 40.7157 139.259 41.3665 139.676C41.5806 139.814 41.7572 140.008 41.901 140.236C41.8951 140.703 41.9468 141.164 42.1318 141.607C42.1901 141.746 42.3133 141.849 42.4541 141.888C42.4615 141.927 42.4665 141.966 42.4713 142.003C42.4736 142.021 42.5006 142.022 42.5017 142.004C42.5028 141.969 42.5039 141.934 42.5049 141.898C42.5497 141.907 42.5959 141.908 42.6422 141.902C44.3194 141.691 45.9927 141.434 47.6639 141.16C47.4828 140.78 47.2913 140.403 47.105 140.023C46.852 139.507 47.6754 139.167 47.9261 139.679C48.144 140.123 48.3686 140.563 48.5757 141.01C50.3656 140.711 52.1533 140.399 53.9405 140.108C57.7415 139.488 61.5524 138.954 65.3605 138.38C71.2742 137.489 77.214 136.461 83.1855 135.946C83.3346 135.484 83.5096 135.028 83.672 134.57C83.8637 134.03 84.6829 134.379 84.4919 134.917C84.379 135.236 84.2601 135.551 84.1495 135.868C85.3604 135.776 86.5727 135.703 87.7863 135.661C89.8572 135.589 91.9276 135.668 93.9989 135.617C96.1048 135.565 98.1328 135.264 100.15 134.654C100.513 134.545 100.702 134.292 100.757 134.003C100.76 134.001 100.762 133.999 100.764 133.995C100.854 133.858 100.94 133.742 101.031 133.64C101.143 133.544 101.267 133.46 101.415 133.38C101.691 133.232 101.985 133.126 102.286 133.041C102.617 132.947 102.958 132.898 103.291 132.813C103.571 132.74 103.842 132.65 104.111 132.548C104.596 132.364 105.051 132.147 105.496 131.88C105.885 131.647 106.223 131.34 106.538 131.014C107.196 130.389 107.737 129.63 108.196 128.855C108.463 128.402 108.709 127.936 108.925 127.456C109.303 126.624 109.605 125.772 109.912 124.912C110.03 124.654 110.134 124.391 110.226 124.125C109.394 123.992 108.559 123.904 107.706 124C107.137 124.065 107.023 123.182 107.592 123.118C108.57 123.007 109.522 123.116 110.474 123.269C110.503 123.145 110.531 123.02 110.555 122.894C110.631 122.627 110.688 122.356 110.729 122.083C110.758 121.958 110.787 121.834 110.816 121.709C110.862 121.283 110.908 120.856 110.955 120.43C111.069 119.742 111.14 119.049 111.168 118.353C111.207 117.893 111.224 117.432 111.216 116.968C111.228 115.841 111.211 114.72 111.075 113.6C110.973 112.912 110.84 112.229 110.676 111.553C110.584 111.092 110.47 110.635 110.338 110.184C110.155 109.512 109.974 108.847 109.729 108.192C109.552 107.75 109.375 107.309 109.197 106.867C108.78 105.953 108.312 105.064 107.793 104.203C107.764 104.148 107.636 104.037 107.569 104.044C107.518 104.05 107.453 104.105 107.484 104.164C107.487 104.169 107.49 104.176 107.493 104.181C107.463 104.132 107.434 104.082 107.405 104.033C107.378 103.987 107.289 103.9 107.229 103.909C107.226 103.909 107.222 103.91 107.218 103.911C107.232 103.898 107.245 103.882 107.257 103.864C107.593 103.343 107.77 102.693 107.984 102.114C108.161 101.635 108.322 101.134 108.32 100.619C108.319 100.167 108.187 99.739 107.861 99.4153C107.49 99.0469 106.867 98.932 107.123 98.2976C107.414 97.5757 107.894 96.9202 107.242 96.2268C106.91 95.8735 106.437 95.7171 106.062 95.4209C105.631 95.0782 105.382 94.5774 105.323 94.0408C105.348 94.0511 105.378 94.0406 105.384 94.0059C105.58 92.9979 105.211 91.9662 104.762 91.067C104.517 90.5792 104.12 90.4878 103.677 90.5194C105.103 86.5485 106.399 82.5337 107.49 78.4569C107.526 78.3232 107.562 78.1897 107.597 78.056C107.65 77.8562 107.454 77.6246 107.26 77.6069C105.846 77.4831 104.401 77.572 102.984 77.6204Z" fill="black"/>
<path fill-rule="evenodd" clip-rule="evenodd" d="M84.1455 35.17C82.8412 28.3592 79.6092 20.8639 72.6182 18.3395C57.4166 14.4045 40.2992 31.4642 41.2191 46.5164C41.5276 51.6697 45.0841 56.8852 50.4501 57.6365C51.7995 59.0144 53.6624 59.7218 55.4869 60.309C77.3449 68.2936 89.4631 57.9457 84.1455 35.17Z" fill="white"/>
<path fill-rule="evenodd" clip-rule="evenodd" d="M88.2612 30.2976C87.2777 28.3802 86.2554 26.4835 85.1953 24.6075C84.163 22.7817 83.2012 20.9044 81.9912 19.1944C74.7645 8.98109 64.1962 10.3451 58.9182 12.4827C55.9276 11.6277 50.6657 12.6569 47.858 14.139C43.3125 16.5385 38.3963 24.3043 36.8127 27.7127C33.3162 35.2381 31.769 44.8534 35.7259 52.5172C36.243 53.5189 36.8552 54.4293 37.5241 55.2966C37.2394 55.8089 36.8994 56.3031 36.5155 56.7952C35.3749 58.2576 34.2288 59.6774 33.2876 61.2823C32.3522 62.8773 31.6207 64.5394 31.1474 66.3289C30.2549 69.7037 30.6606 73.3423 32.7824 76.1788C34.6284 78.6468 37.5459 80.2855 40.569 80.0876C40.7257 80.0891 40.8824 80.0889 41.0392 80.0844C41.521 80.6876 42.0833 81.2277 42.704 81.6816C44.606 83.0743 48.7509 83.3797 51.061 83.1354C51.1913 83.2151 51.3227 83.2946 51.454 83.373C53.0065 84.3003 54.6298 85.2285 56.3496 85.8087C57.5146 86.2026 59.0092 86.4641 60.1027 85.9302C60.6661 86.2098 61.5076 86.0272 61.9853 85.6772C62.7705 85.1023 63.3498 84.1748 63.6573 83.2622C64.4025 81.0466 63.8641 78.7969 63.3162 76.6034C62.7118 74.1804 62.1183 71.7549 61.5204 69.3311C61.0525 67.4359 60.5706 65.5099 59.7465 63.7324C59.3202 62.8113 58.8049 61.9398 58.1809 61.1384C58.1847 61.0638 58.1731 60.9913 58.1433 60.9256C57.9052 60.402 57.5218 60.1609 57.0634 59.8431C57.0043 59.8025 56.945 59.7608 56.8867 59.7178C56.6513 59.5103 56.4036 59.3212 56.1447 59.1673C56.0424 59.0874 55.941 59.0062 55.8397 58.925C54.9965 58.2428 54.1891 57.5156 53.4524 56.7198C52.738 55.9481 52.0771 55.1313 51.4407 54.2945C50.7934 53.4434 50.3126 52.4743 49.6673 51.6297C49.6119 51.5572 49.4952 51.5566 49.4396 51.63C49.298 51.8199 49.2174 52.021 49.2628 52.216L49.1827 52.2387C49.1133 51.9447 48.8072 51.7374 48.4425 51.8506C47.8966 52.0198 47.4422 52.1155 46.9349 51.9925C46.9471 51.4176 46.9525 50.8424 46.9567 50.2663C46.9635 49.2062 46.96 48.1441 46.9376 47.0845C47.2186 47.1144 47.5011 47.1733 47.7814 47.2583C48.1806 47.3785 48.5664 47.5598 48.9071 47.7997C49.2429 48.0369 49.4983 48.382 49.8895 48.5267C50.3395 48.6919 50.8014 48.2632 50.6162 47.8024C50.2414 46.8712 48.752 46.5025 47.8511 46.4336C47.5417 46.4096 47.2304 46.4228 46.9233 46.4692C46.9062 45.7892 46.8814 45.1102 46.8454 44.4316C46.8287 44.1106 46.8098 43.7899 46.7896 43.4683C47.445 43.1739 48.1676 43.0178 48.8898 43.0233C49.1478 43.1796 49.4055 43.3337 49.6559 43.491C50.451 43.992 51.2432 44.4968 52.028 45.0137C52.099 45.0596 52.1688 45.1055 52.24 45.1524C52.7059 45.4592 53.1829 45.0341 53.0463 44.5322C51.9298 40.4194 54.0648 36.7577 56.7347 33.7898C59.69 30.5035 65.6906 29.3908 69.005 23.9313C70.8735 24.0669 75.0805 24.6428 77.103 27.0993C79.9349 30.5419 80.0613 33.9376 80.7885 38.1635C81.5161 42.3927 82.5432 46.7695 82.1187 51.0868C81.727 55.0677 79.7419 58.6821 76.1966 60.6836C76.1088 60.7331 76.0197 60.7816 75.9304 60.829C74.0899 61.8082 72.0053 62.2871 69.9207 62.1657C67.6132 62.0304 65.5996 61.2423 63.5619 60.2161C63.4445 60.1583 63.3058 60.3266 63.4014 60.4242C66.2938 63.3788 71.2865 63.8463 75.0233 62.4855C75.1979 62.4214 75.371 62.3542 75.5424 62.2827C75.0011 64.8693 75.5251 67.564 76.9574 69.8296C77.8189 71.1928 79.0094 72.3148 80.3898 73.1431C81.9112 74.0553 83.7377 74.7149 84.8932 76.122C85.9516 77.4115 85.8946 79.0211 84.4971 80.025C84.145 80.2791 84.085 80.9612 84.4978 81.2041C84.6555 81.296 84.8135 81.39 84.9745 81.4815C85.8974 82.0075 88.3611 82.9013 88.741 82.8971C92.1137 82.8624 94.0327 80.1351 95.0927 77.0732C96.3377 73.4792 95.3695 69.4201 93.1025 66.4432C91.284 64.0546 88.0301 61.8895 88.7719 58.4737C89.0363 57.2537 89.7566 56.1498 90.4651 55.145C91.2733 54.0006 92.1606 52.9122 92.9256 51.7363C93.6859 50.5689 94.3328 49.3219 94.6061 47.9447C95.005 45.9319 94.4135 43.8877 93.6783 42.0247C92.1018 38.0251 90.2212 34.1209 88.2612 30.2976Z" fill="black"/>
</g>
<path fill-rule="evenodd" clip-rule="evenodd" d="M71.0183 57.3347C70.2374 57.1278 69.5102 56.7084 68.9431 56.1259C68.7459 55.9234 68.6717 55.6923 68.679 55.4712C68.6873 55.2226 68.8029 54.9834 68.9802 54.81C69.1581 54.6361 69.3951 54.531 69.6383 54.5376C69.8495 54.5433 70.0703 54.6301 70.2638 54.8442L70.3039 54.8868C70.6419 55.2389 71.058 55.5099 71.5118 55.6606C71.9491 55.8059 72.4216 55.839 72.8912 55.7237C73.7856 55.504 74.3478 54.9324 74.9267 54.1801C74.9982 54.0853 75.0695 53.9878 75.141 53.889C75.183 53.8023 75.249 53.7415 75.3261 53.7041C75.4118 53.6627 75.5133 53.6513 75.6102 53.6717C75.7037 53.6913 75.7914 53.7402 75.8552 53.812C75.9158 53.8803 75.9566 53.969 75.961 54.0766C75.9893 54.7752 75.7077 55.4383 75.2572 55.9886C74.7568 56.5997 74.0496 57.0692 73.3554 57.2914C72.5906 57.5362 71.7791 57.5362 71.0183 57.3347ZM62.0199 42.925C61.9645 41.7702 63.6717 41.286 63.9908 42.3946C64.2766 43.3878 64.2142 44.342 63.8756 45.3131C63.552 46.2408 62.4036 45.9756 62.2183 45.1928C61.9699 44.1435 62.0544 43.6434 62.0199 42.925ZM75.2051 40.7088C75.4067 40.3597 75.7291 40.0975 76.1648 40.1659C77.5259 40.3799 77.3796 42.2919 77.036 43.2578C76.8492 43.7823 76.0562 44.0116 75.6347 43.6254C74.9475 42.9955 74.4799 41.6209 75.1477 40.827C75.1636 40.7883 75.1818 40.7491 75.2051 40.7088ZM62.878 37.7295L63.0806 37.6665C63.7072 37.473 64.4904 37.2636 65.0104 37.7204C65.2861 37.9626 65.4344 38.4598 65.1449 38.7631C64.6357 39.2967 63.9841 39.1995 63.3077 39.3264C62.7504 39.4311 62.2227 39.5936 61.7018 39.8181C60.5589 40.3104 59.6719 41.0543 58.7462 41.8649C58.6248 41.9713 58.4671 41.8187 58.5145 41.6861C58.9516 40.4647 59.9639 39.3771 61.0254 38.6568C61.592 38.2723 62.2225 37.9326 62.878 37.7295ZM73.363 35.8545L73.5258 35.8665C75.2981 36.0045 77.6333 36.4357 78.6693 38.0253C78.7314 38.261 78.7051 38.3166 78.6827 38.3536L78.6752 38.3659C78.6569 38.3974 78.6444 38.4392 78.5447 38.4853C78.515 38.4821 78.4849 38.4786 78.4545 38.4747C78.0672 38.4249 77.7534 38.3279 77.4483 38.2246L77.1174 38.1115C76.7337 37.9811 76.3475 37.8575 75.9454 37.7814C75.0872 37.6191 74.2156 37.5392 73.3424 37.5492C73.1531 37.5514 72.9655 37.5116 72.8099 37.4221C72.6623 37.337 72.5413 37.2086 72.4701 37.0262C72.378 36.7903 72.3716 36.6034 72.474 36.3666C72.5511 36.1887 72.677 36.0561 72.8301 35.9695C72.9862 35.8812 73.1718 35.8412 73.363 35.8545Z" fill="black"/>
</svg>
