<svg width="67" height="67" viewBox="0 0 67 67" fill="none" xmlns="http://www.w3.org/2000/svg">
<path d="M36.4189 59.3829C36.6307 59.9456 37.1989 60.2911 37.7959 60.2204C38.3929 60.1496 38.8647 59.6808 38.9391 59.0842C39.735 52.7062 45.0724 38.2079 59.9206 31.7446C60.4882 31.4975 60.8046 30.8861 60.6786 30.28C60.5526 29.674 60.0187 29.2394 59.3997 29.239C52.0093 29.2348 45.956 25.8134 41.3467 21.4348C36.7271 17.0467 33.6429 11.7721 32.2338 8.29803C32.0105 7.74729 31.4436 7.41658 30.8543 7.49313C30.2649 7.56968 29.8014 8.0342 29.7261 8.62373C27.449 26.4534 14.7833 34.2493 8.91059 35.9077C8.29576 36.0814 7.89653 36.674 7.96663 37.309C8.03673 37.944 8.55561 38.4353 9.19351 38.4707C15.7367 38.8332 30.4509 43.5308 36.4189 59.3829Z" fill="#B3B3B3"/>
<path d="M27.157 6.88604C27.1947 6.59131 27.4264 6.35878 27.721 6.32051C28.0156 6.28247 28.2985 6.44813 28.4102 6.72336C29.8497 10.2725 32.9833 15.6283 37.6785 20.0883C42.3687 24.5436 48.575 28.0671 56.1814 28.0716C56.4908 28.0718 56.7575 28.2895 56.8206 28.5925C56.8836 28.8954 56.7259 29.2014 56.4423 29.325C41.3133 35.9106 35.8865 50.6623 35.0728 57.1833C35.0355 57.4813 34.7996 57.715 34.5013 57.7505C34.2029 57.7859 33.9189 57.6135 33.813 57.3322C27.7246 41.1603 12.719 36.3693 6.01155 35.9977C5.69277 35.9799 5.43364 35.7343 5.39854 35.417C5.3635 35.0995 5.56297 34.8036 5.87026 34.7167C11.9418 33.0021 24.8403 25.0265 27.157 6.88604Z" fill="#FC75FF" stroke="black" stroke-width="1.30707" stroke-linejoin="round"/>
<path d="M42.0995 30.9443C35.605 34.9157 33.1567 41.9019 32.4732 45.1434C30.306 40.997 24.7465 34.4003 19.8141 33.7336C21.7793 33.0756 26.7786 27.0548 29.1256 19.6218C33.3764 27.124 39.412 30.2202 42.0995 30.9443Z" fill="white" stroke="black" stroke-width="1.30707" stroke-linecap="round" stroke-linejoin="round"/>
</svg>
